<?xml version="1.0" encoding="UTF-8"?>
<svg width="22px" height="20px" viewBox="0 0 22 20" version="1.1" xmlns="http://www.w3.org/2000/svg" xmlns:xlink="http://www.w3.org/1999/xlink">
    <!-- Generator: sketchtool 53.2 (72643) - https://sketchapp.com -->
    <title>F360E670-70FA-49CD-B5E6-64B7B6BE6082</title>
    <desc>Created with sketchtool.</desc>
    <g id="Page-1" stroke="none" stroke-width="1" fill="none" fill-rule="evenodd">
        <g id="1.-home-page-copy-5" transform="translate(-33.000000, -360.000000)">
            <g id="Group-3" transform="translate(20.000000, 85.000000)">
                <g id="Group-2">
                    <g transform="translate(10.000000, 20.000000)" id="Group-9">
                        <g transform="translate(0.000000, 250.000000)">
                            <g id="farmer">
                                <rect id="Rectangle" x="0" y="0" width="30" height="30"></rect>
                                <path d="M21.778418,8.31504098 L21.778418,6.1979918 C21.778418,6.1979918 19.614168,5.40983607 17.5679961,5.40983607 C15.5218242,5.40983607 13.3576172,6.1979918 13.3576172,6.1979918 L13.3576172,8.30979508 L13.3748906,8.30979508 C13.3635469,8.31315574 13.3576172,8.31504098 13.3576172,8.31504098 L11.2984687,11.0806967 C13.049875,10.4705738 15.2210859,10.1094262 17.5728086,10.1094262 C19.9244883,10.1094262 22.0957422,10.4706148 23.8471484,11.0806967 L21.778418,8.31504098 Z" id="Path" fill="#FFC943" fill-rule="nonzero"></path>
                                <path d="M13.2076992,10.8156148 L13.1905977,11.1472951 C12.5889063,11.1472951 12.101125,11.612541 12.101125,12.1864344 C12.101125,12.7603279 12.5889063,13.2255738 13.1905977,13.2255738 L13.1905977,14.0013525 C13.2430195,14.6556148 13.5775313,15.2381148 14.0840039,15.5571311 L16.7177305,16.9931967 C17.2465898,17.3263115 17.8895742,17.3263115 18.4184336,16.9931967 L21.0442539,15.5571311 C21.5507695,15.2381148 21.8930586,14.6556148 21.9455234,14.0013525 L21.9455234,13.2255738 C22.5472148,13.2255738 23.0349961,12.7603279 23.0349961,12.1864344 C23.0349961,11.612541 22.5472148,11.1472951 21.9455234,11.1472951 L21.9455234,10.8156148 L17.5728086,10.1094262 L13.2076992,10.8156148 Z" id="Path" fill="#F9BD95" fill-rule="nonzero"></path>
                                <path d="M10.5625,24.3134426 L10.5625,20.6038115 C10.5625,20.0494672 10.9811875,19.469959 11.623957,19.2567623 L15.193543,18.247582 C15.4775664,18.1533607 15.6625469,17.932459 15.6625469,17.6875 L15.6625469,17.5886475 L19.4734453,17.5886475 L19.4734453,17.6875 C19.4734453,17.932418 19.6584258,18.1534016 19.9424492,18.247582 L23.5088125,19.2567623 C24.151582,19.469918 24.5703125,20.0494672 24.5703125,20.6037705 L24.5703125,24.3134426 L10.5625,24.3134426 L10.5625,24.3134426 Z" id="Path" fill="#ACD670" fill-rule="nonzero"></path>
                                <g id="Group" transform="translate(12.539062, 18.565574)" fill="#FFC943" fill-rule="nonzero">
                                    <rect id="Rectangle" x="0.04125" y="0.0356557377" width="1.36185156" height="5.99262295"></rect>
                                    <rect id="Rectangle" x="8.65003906" y="0.0356557377" width="1.36185156" height="5.99262295"></rect>
                                </g>
                                <polygon id="Path" fill="#F9BD95" fill-rule="nonzero" points="19.4750781 16.6939754 19.4750781 18.1589344 17.5746992 19.9634016 17.5746562 19.9634016 15.6696797 18.1589344 15.6696797 16.6939754"></polygon>
                                <path d="M23.8471484,11.0806967 L21.7784609,8.31504098 C21.7784609,8.31504098 20.2400508,7.89008197 17.4676211,7.89008197 C14.6951914,7.89008197 13.3576172,8.31504098 13.3576172,8.31504098 L11.2984687,11.0806967 C13.049875,10.4705738 15.2210859,10.1094262 17.5728086,10.1094262 C19.9244883,10.1094262 22.0957422,10.4706148 23.8471484,11.0806967 Z" id="Path" fill="#D8902A" fill-rule="nonzero"></path>
                                <path d="M3.43561719,24.1803279 L3.4296875,24.1803279 C3.19241406,24.1803279 3,24.3638115 3,24.5901639 C3,24.8165164 3.19241406,25 3.4296875,25 L3.43561719,25 C3.67289062,25 3.86530469,24.8165164 3.86530469,24.5901639 C3.86530469,24.3638115 3.67289062,24.1803279 3.43561719,24.1803279 Z" id="Path" fill="#000000" fill-rule="nonzero"></path>
                                <path d="M25,20.6037705 C25,19.8463934 24.4448438,19.1332787 23.6499648,18.8696311 C23.6436914,18.867582 23.637418,18.8656148 23.6311016,18.8638115 L20.0759531,17.8577869 C19.9801328,17.8239344 19.9128438,17.7609016 19.9048086,17.6995492 L19.9048086,16.6939754 C19.9048086,16.6804508 19.9040352,16.6670902 19.9027031,16.6538934 L21.2580234,15.9126639 C21.2658438,15.9084016 21.2734922,15.9038525 21.2810547,15.8990984 C21.9031133,15.5072541 22.3116602,14.8095082 22.3739648,14.032582 C22.3748242,14.0221721 22.3752109,14.0117623 22.3752109,14.0013115 L22.3752109,13.5763115 C23.0042734,13.3990574 23.4646406,12.8430328 23.4646406,12.1863525 C23.4646406,11.8445082 23.3396875,11.530082 23.131332,11.2820082 C23.3240469,11.3402459 23.5141836,11.4009426 23.6997656,11.4655738 C23.7479766,11.482377 23.7977773,11.4904508 23.8471055,11.4904508 C23.9785898,11.4904508 24.1061211,11.4327869 24.1890937,11.3288525 C24.3031328,11.1859426 24.3063555,10.9888115 24.197,10.842582 L22.2081914,8.18372951 L22.2081914,6.1979918 C22.2081914,6.02807377 22.0982344,5.8757377 21.9317734,5.81512295 C21.8403359,5.78184426 19.6692969,5 17.5680391,5 C15.4667813,5 13.2956992,5.78184426 13.2043047,5.81512295 C13.0378867,5.8757377 12.9278867,6.02807377 12.9278867,6.1979918 L12.9278867,8.18434426 L10.9481016,10.8434426 C10.8391758,10.9897541 10.8426992,11.1866803 10.9568242,11.3293033 C11.0709492,11.4720082 11.2691641,11.5272541 11.4458516,11.4656967 C11.6273086,11.4025 11.8131914,11.3431148 12.0015234,11.2860246 C11.7951016,11.5334836 11.6713945,11.8463934 11.6713945,12.1864344 C11.6713945,12.8431148 12.1318047,13.3991803 12.7608672,13.5763934 L12.7608672,14.0013934 C12.7608672,14.0118033 12.7612969,14.0222131 12.7621133,14.032623 C12.8245898,14.8128279 13.2302578,15.5106148 13.8471602,15.8991803 C13.8548516,15.9040164 13.8626719,15.9086066 13.870707,15.9129918 L15.241668,16.6605328 C15.2407656,16.6715984 15.2399063,16.6827049 15.2399063,16.6940164 L15.2399063,17.5165574 C15.2355234,17.54 15.2328594,17.5640164 15.2328594,17.5886475 L15.2328594,17.6875 C15.2328594,17.752459 15.1621758,17.8217623 15.060082,17.8578279 L11.5017969,18.8638115 C11.4954375,18.8656148 11.4890352,18.867582 11.4827617,18.8696721 C10.6879687,19.1332787 10.1328125,19.8463934 10.1328125,20.6037705 L10.1328125,24.1803279 L7.3828125,24.1803279 L7.3828125,20.1639344 L8.19921875,20.1639344 C9.02847266,20.1639344 9.703125,19.5204508 9.703125,18.7295082 L9.703125,13.1130328 C9.703125,12.8866803 9.51071094,12.7031967 9.2734375,12.7031967 C9.03616406,12.7031967 8.84375,12.8866803 8.84375,13.1130328 L8.84375,18.7295082 C8.84375,19.0684836 8.55461328,19.3442623 8.19921875,19.3442623 L7.75719922,19.3442623 L7.75719922,13.075041 C7.75719922,12.8486885 7.56478516,12.6652049 7.32751172,12.6652049 C7.09023828,12.6652049 6.89782422,12.8486885 6.89782422,13.075041 L6.89782422,19.3442623 L5.81123047,19.3442623 L5.81123047,13.075041 C5.81123047,12.8486885 5.61881641,12.6652049 5.38154297,12.6652049 C5.14426953,12.6652049 4.95185547,12.8486885 4.95185547,13.075041 L4.95185547,19.3442623 L4.50390625,19.3442623 C4.14851172,19.3442623 3.859375,19.0684836 3.859375,18.7295082 L3.859375,13.1130328 C3.859375,12.8866803 3.66696094,12.7031967 3.4296875,12.7031967 C3.19241406,12.7031967 3,12.8866803 3,13.1130328 L3,18.7295082 C3,19.5204508 3.67465234,20.1639344 4.50390625,20.1639344 L5.3203125,20.1639344 L5.3203125,24.1803279 L4.71810547,24.1803279 C4.48083203,24.1803279 4.28841797,24.3638115 4.28841797,24.5901639 C4.28841797,24.8165164 4.48083203,25 4.71810547,25 L24.5703125,25 C24.8075859,25 25,24.8165164 25,24.5901639 C25,24.5415164 25,20.6037705 25,20.6037705 Z M24.140625,20.6037705 L24.140625,24.1803279 L22.9804688,24.1803279 L22.9804688,19.5346721 L23.3763398,19.6466803 C23.8126445,19.7953689 24.140625,20.2052869 24.140625,20.6037705 Z M17.5680391,5.81967213 C19.0928281,5.81967213 20.7146406,6.28540984 21.3487305,6.48831967 L21.3487305,7.8002459 C20.6604141,7.66946721 19.3412734,7.4802459 17.4676211,7.4802459 C15.6544258,7.4802459 14.4380664,7.65831967 13.7873047,7.78959016 L13.7873047,6.48811475 C14.42075,6.28512295 16.0399414,5.81967213 17.5680391,5.81967213 Z M13.6208008,8.66942623 C14.0098828,8.57135246 15.2845508,8.29991803 17.4676211,8.29991803 C19.6742383,8.29991803 21.0895,8.57729508 21.519918,8.67508197 L22.7508008,10.3206967 C21.170582,9.91262295 19.4055977,9.69954918 17.5727656,9.69954918 C15.7382578,9.69954918 13.9718555,9.9129918 12.3905195,10.3218033 L13.6208008,8.66942623 Z M13.6202852,13.985041 L13.6202852,13.2255738 C13.6202852,12.9992213 13.4278711,12.8157377 13.1905977,12.8157377 C12.8267812,12.8157377 12.5308125,12.5334426 12.5308125,12.1864344 C12.5308125,11.8394262 12.8268242,11.5571311 13.1905977,11.5571311 C13.419707,11.5571311 13.6085547,11.3856557 13.6197695,11.167418 L13.6343789,10.8834836 C14.8691289,10.6437295 16.1994844,10.5192623 17.5727656,10.5192623 C18.9477656,10.5192623 20.2797109,10.6440164 21.515793,10.8843443 L21.515793,11.1472951 C21.515793,11.3736475 21.708207,11.5571311 21.9454805,11.5571311 C22.3092969,11.5571311 22.6052227,11.8394262 22.6052227,12.1864344 C22.6052227,12.5334426 22.3092539,12.8157377 21.9454805,12.8157377 C21.708207,12.8157377 21.515793,12.9992213 21.515793,13.2255738 L21.515793,13.984959 C21.4702461,14.5006148 21.210457,14.9561475 20.8179375,15.2084836 L18.2046641,16.6376639 C18.1968437,16.6419672 18.1891523,16.6464754 18.1816328,16.6512295 C17.7974063,16.8932377 17.3387148,16.8931967 16.9545313,16.6512295 C16.9468398,16.6463934 16.9390195,16.6417623 16.9309844,16.637418 L14.3101055,15.2083607 C13.9227852,14.9591393 13.6660039,14.5036475 13.6202852,13.985041 Z M16.4931328,17.3428279 C16.8253242,17.5489754 17.1966602,17.6519672 17.568082,17.6519672 C17.9395469,17.6519672 18.3109688,17.5488934 18.6432031,17.3426639 L19.0453477,17.1227459 L19.0453477,17.5585246 C19.0445742,17.5685246 19.0437578,17.5784836 19.0437578,17.5886475 L19.0437578,17.6875 C19.0437578,17.6997131 19.044832,17.7117213 19.0453477,17.7238115 L19.0453477,17.9886885 L17.5742695,19.3854918 L16.0993242,17.9884016 L16.0993242,17.1281557 L16.4931328,17.3428279 Z M15.3156602,18.6404918 C15.3220625,18.6386885 15.3284219,18.6367213 15.3346953,18.6346311 C15.3902109,18.6162295 15.4431914,18.5944672 15.4937227,18.569959 L17.2718555,20.2541803 C17.3556445,20.3335656 17.4651289,20.3731967 17.5746563,20.3731967 C17.6843125,20.3731967 17.7939688,20.3334016 17.8778008,20.2538115 L19.6483711,18.5726639 C19.6971406,18.5959836 19.7480156,18.6169262 19.8013828,18.6346311 C19.8076563,18.6367213 19.8139297,18.6386475 19.8202461,18.6404508 L22.1210938,19.2915164 L22.1210938,24.1803279 L21.6186172,24.1803279 L21.6186172,21.2969262 C21.6186172,21.0705738 21.4262031,20.8870902 21.1889297,20.8870902 C20.9516562,20.8870902 20.7592422,21.0705738 20.7592422,21.2969262 L20.7592422,24.1803279 L14.3717656,24.1803279 L14.3717656,21.2969262 C14.3717656,21.0705738 14.1793516,20.8870902 13.9420781,20.8870902 C13.7048047,20.8870902 13.5123906,21.0705738 13.5123906,21.2969262 L13.5123906,24.1803279 L13.0099141,24.1803279 L13.0099141,19.292377 L15.3156602,18.6404918 Z M10.9921875,20.6037705 C10.9921875,20.2052869 11.320125,19.7953689 11.7564727,19.6467213 L12.1505391,19.5353279 L12.1505391,24.1803279 L10.9921875,24.1803279 L10.9921875,20.6037705 Z M6.1796875,24.1803279 L6.1796875,20.1639344 L6.5234375,20.1639344 L6.5234375,24.1803279 L6.1796875,24.1803279 Z" id="Shape" fill="#000000" fill-rule="nonzero"></path>
                                <path d="M19.341832,12.7055328 C19.6103437,12.7055328 19.8287969,12.4971721 19.8287969,12.2410656 C19.8287969,11.984959 19.6103437,11.7765984 19.341832,11.7765984 C19.0733203,11.7765984 18.8548672,11.984959 18.8548672,12.2410656 C18.8548672,12.4971721 19.0733203,12.7055328 19.341832,12.7055328 Z" id="Path" fill="#000000" fill-rule="nonzero"></path>
                                <path d="M15.7942461,11.7765984 C15.5257344,11.7765984 15.3072813,11.984959 15.3072813,12.2410656 C15.3072813,12.4971721 15.5257344,12.7055328 15.7942461,12.7055328 C16.0627578,12.7055328 16.2812109,12.4971721 16.2812109,12.2410656 C16.2812109,11.984959 16.0627578,11.7765984 15.7942461,11.7765984 Z" id="Path" fill="#000000" fill-rule="nonzero"></path>
                                <path d="M13.9420781,20.479877 C14.1793516,20.479877 14.3717656,20.2963934 14.3717656,20.070041 L14.3717656,20.0642623 C14.3717656,19.8379098 14.1793516,19.6544262 13.9420781,19.6544262 C13.7048047,19.6544262 13.5123906,19.8379098 13.5123906,20.0642623 L13.5123906,20.070041 C13.5123906,20.2963934 13.7048047,20.479877 13.9420781,20.479877 Z" id="Path" fill="#000000" fill-rule="nonzero"></path>
                                <path d="M21.1889297,20.479877 C21.4262031,20.479877 21.6186172,20.2963934 21.6186172,20.070041 L21.6186172,20.0642623 C21.6186172,19.8379098 21.4262031,19.6544262 21.1889297,19.6544262 C20.9516563,19.6544262 20.7592422,19.8379098 20.7592422,20.0642623 L20.7592422,20.070041 C20.7592422,20.2963934 20.9516133,20.479877 21.1889297,20.479877 Z" id="Path" fill="#000000" fill-rule="nonzero"></path>
                                <path d="M18.2756914,14.7285246 C18.4565039,14.5818852 18.4784609,14.3232377 18.3247187,14.1508197 C18.1782383,13.9863934 17.9248086,13.9597131 17.7448125,14.0847131 C17.7305039,14.0909836 17.6746016,14.1120492 17.568082,14.1120492 C17.4661172,14.1120492 17.4126641,14.0928279 17.3980977,14.0866393 C17.220207,13.9611066 16.9683242,13.9845902 16.8198672,14.1459836 C16.6632891,14.3161066 16.6810352,14.575041 16.8593555,14.7243443 C16.9174922,14.7729918 17.1403281,14.9317213 17.568082,14.9317213 C17.9921836,14.9316803 18.2169531,14.7761885 18.2756914,14.7285246 Z" id="Path" fill="#000000" fill-rule="nonzero"></path>
                            </g>
                        </g>
                    </g>
                </g>
            </g>
        </g>
    </g>
</svg>