<?xml version="1.0" encoding="UTF-8"?>
<svg width="10px" height="10px" viewBox="0 0 10 10" version="1.1" xmlns="http://www.w3.org/2000/svg" xmlns:xlink="http://www.w3.org/1999/xlink">
    <!-- Generator: sketchtool 53.2 (72643) - https://sketchapp.com -->
    <title>14B4ED9C-2C11-4173-BB55-4DBD2A9F078B</title>
    <desc>Created with sketchtool.</desc>
    <g id="Page-1" stroke="none" stroke-width="1" fill="none" fill-rule="evenodd">
        <g id="1.-home-page-copy-4" transform="translate(-71.000000, -97.000000)">
            <g id="Group" transform="translate(20.000000, 20.000000)">
                <g id="Bitmap" transform="translate(0.000000, 65.000000)">
                    <g id="filter" transform="translate(49.000000, 10.000000)">
                        <rect id="Rectangle" x="0" y="0" width="14" height="14"></rect>
                        <path d="M11.3873345,1.99999922 L2.47206312,1.99999922 C2.31472255,1.99970178 2.17056807,2.08754284 2.09868909,2.22743417 C2.02581869,2.36920921 2.0386082,2.53993415 2.13170386,2.66941541 L5.39788381,7.27056115 C5.39897437,7.27214745 5.40016409,7.27363461 5.40125468,7.2752209 C5.51992931,7.43543662 5.58417423,7.6295594 5.58447167,7.82893675 L5.58447167,11.5802253 C5.58377766,11.6912659 5.62740075,11.7980434 5.70562491,11.8768624 C5.78394817,11.9555822 5.89042819,11.9999985 6.00146879,11.9999985 C6.05788138,11.9998993 6.11379825,11.9886961 6.16594766,11.9669837 L8.00129017,11.2672296 C8.16566992,11.216964 8.27482679,11.0618045 8.27482679,10.8750184 L8.27482679,7.82893675 C8.27512423,7.6295594 8.33936915,7.43543662 8.45794465,7.2752209 C8.45903521,7.27363461 8.46022495,7.27214745 8.46131551,7.27056115 L11.7275946,2.66931627 C11.8206903,2.53993415 11.8334798,2.36930835 11.7606094,2.22753331 C11.6888296,2.08754284 11.5445759,1.99970178 11.3873345,1.99999922 Z" id="Path" fill="#000000" fill-rule="nonzero"></path>
                    </g>
                </g>
            </g>
        </g>
    </g>
</svg>