<?xml version="1.0" encoding="UTF-8"?>
<svg width="16px" height="18px" viewBox="0 0 16 18" version="1.1" xmlns="http://www.w3.org/2000/svg" xmlns:xlink="http://www.w3.org/1999/xlink">
    <!-- Generator: sketchtool 53.2 (72643) - https://sketchapp.com -->
    <title>89D8EC8A-CDC8-45CB-B077-53488340DC02</title>
    <desc>Created with sketchtool.</desc>
    <g id="Page-1" stroke="none" stroke-width="1" fill="none" fill-rule="evenodd">
        <g id="18.-fields,-photo-info" transform="translate(-112.000000, -562.000000)">
            <g id="Group" transform="translate(20.000000, 20.000000)">
                <g id="Bitmap" transform="translate(0.000000, 70.000000)">
                    <g id="Group-15" transform="translate(20.000000, 471.000000)">
                        <g id="ic_date_range" transform="translate(70.000000, 0.000000)">
                            <g id="Icon-24px">
                                <path d="M7.5,9.16666667 L5.83333333,9.16666667 L5.83333333,10.8333333 L7.5,10.8333333 L7.5,9.16666667 L7.5,9.16666667 Z M10.8333333,9.16666667 L9.16666667,9.16666667 L9.16666667,10.8333333 L10.8333333,10.8333333 L10.8333333,9.16666667 L10.8333333,9.16666667 Z M14.1666667,9.16666667 L12.5,9.16666667 L12.5,10.8333333 L14.1666667,10.8333333 L14.1666667,9.16666667 L14.1666667,9.16666667 Z M15.8333333,3.33333333 L15,3.33333333 L15,1.66666667 L13.3333333,1.66666667 L13.3333333,3.33333333 L6.66666667,3.33333333 L6.66666667,1.66666667 L5,1.66666667 L5,3.33333333 L4.16666667,3.33333333 C3.24166667,3.33333333 2.50833333,4.08333333 2.50833333,5 L2.5,16.6666667 C2.5,17.5833333 3.24166667,18.3333333 4.16666667,18.3333333 L15.8333333,18.3333333 C16.75,18.3333333 17.5,17.5833333 17.5,16.6666667 L17.5,5 C17.5,4.08333333 16.75,3.33333333 15.8333333,3.33333333 L15.8333333,3.33333333 Z M15.8333333,16.6666667 L4.16666667,16.6666667 L4.16666667,7.5 L15.8333333,7.5 L15.8333333,16.6666667 L15.8333333,16.6666667 Z" id="Shape" fill="#000000"></path>
                                <polygon id="Shape" points="0 0 20 0 20 20 0 20"></polygon>
                            </g>
                        </g>
                    </g>
                </g>
            </g>
        </g>
    </g>
</svg>