<?xml version="1.0" encoding="UTF-8"?>
<svg width="29px" height="28px" viewBox="0 0 29 28" version="1.1" xmlns="http://www.w3.org/2000/svg" xmlns:xlink="http://www.w3.org/1999/xlink">
    <!-- Generator: sketchtool 53.2 (72643) - https://sketchapp.com -->
    <title>56228955-55FD-4976-92EC-4DE2A070C127</title>
    <desc>Created with sketchtool.</desc>
    <g id="Page-1" stroke="none" stroke-width="1" fill="none" fill-rule="evenodd">
        <g id="13.-fields,-photos-added" transform="translate(-167.000000, -245.000000)" fill-rule="nonzero">
            <g id="Group" transform="translate(20.000000, 20.000000)">
                <g id="Bitmap" transform="translate(0.000000, 70.000000)">
                    <g id="Group-2" transform="translate(20.000000, 155.000000)">
                        <g id="lightning" transform="translate(127.000000, 0.000000)">
                            <path d="M25.8177261,15.3548387 C27.5585403,15.3548387 28.9869461,13.9496915 28.9997788,12.2012022 C29,12.1887574 29,12.1765349 29,12.1640901 C29,9.92181032 27.4921646,8.04909556 25.4812012,7.59619507 C25.6902847,6.22304869 25.1836167,4.77790046 24.0463791,3.88854426 C22.6679764,2.81029441 20.8056946,2.89362984 19.5261917,3.97565761 C18.1079636,1.58892971 15.5817032,0 12.7007751,0 C8.56003569,0 5.15119931,3.28230647 4.71378325,7.49908142 C4.62970732,7.49419244 4.54518892,7.49108122 4.46000674,7.49108122 C1.99680327,7.49108122 0,9.58335717 0,12.1640901 C0,12.1765349 0,12.1889796 0.000221252441,12.2012022 C0.0130539082,13.9496915 1.44123838,15.3548387 3.18227388,15.3548387 L25.8177261,15.3548387 Z" id="Path" fill="#E7ECED"></path>
                            <path d="M12.787579,0 C12.1295795,0 11.4894264,0.0690672652 10.875,0.198921714 C12.747946,0.594947597 14.3810085,1.55966753 15.5419523,2.88184069 C15.8859013,3.27342362 16.4467885,3.47800001 17.006285,3.40368205 C18.1176297,3.25645974 19.3798576,3.42044394 19.9375,3.61290323 C18.4518443,1.44394962 15.8054765,0 12.787579,0 Z" id="Path" fill="#D8D8D8"></path>
                            <path d="M25.6338379,7.90831773 C25.8338393,6.59062496 25.3491797,5.20340036 24.2613411,4.34982209 C22.9430246,3.31494918 21.1616359,3.39493211 19.9375,4.43343096 C19.9375,4.43343096 22.180691,5.26802661 22.2780462,7.00013776 C22.3074644,7.52418615 22.5931808,8.00429727 23.0602741,8.23656779 C24.5055757,8.95470822 25.5053713,10.500619 25.5053713,12.2926641 C25.5053713,12.3043949 25.5053713,12.316339 25.5051597,12.3280699 C25.4928844,14.0064325 24.1267369,15.3548387 22.4613279,15.3548387 L25.955745,15.3548387 C27.6211539,15.3548387 28.9875131,14.0064325 28.9997884,12.3280699 C28.9997884,12.316339 29,12.3043949 29,12.2926641 C29,10.1403758 27.5576614,8.34299848 25.6338379,7.90831773 L25.6338379,7.90831773 Z" id="Path" fill="#D8D8D8"></path>
                            <path d="M8.17035126,27.8060808 L12.3102469,18.991668 C12.4023973,18.7954591 12.263205,18.5679448 12.0509798,18.5679448 L9.07853781,18.5679448 C8.83666976,18.5679448 8.70263278,18.2804656 8.85428357,18.0873431 L16.6344433,8.17989196 C16.7253049,8.06415067 16.9050949,8.16313704 16.8612751,8.30489253 L14.4868443,15.9733567 C14.4286327,16.1611881 14.5628844,16.3538698 14.755133,16.3580585 L17.8427094,16.4246373 C18.0888734,16.4299283 18.2153924,16.7293124 18.0506386,16.9173644 L8.38558375,27.9542296 C8.28441159,28.0699709 8.10462161,27.9460726 8.17035126,27.8060808 Z" id="Path" fill="#FCCF3F"></path>
                            <g id="Group" transform="translate(0.906250, 17.161290)" fill="#D8D8D8">
                                <path d="M0.47153011,4.51045143 C0.405755877,4.51045143 0.339092861,4.49686572 0.276207348,4.46847769 C0.0586635045,4.36993072 -0.0297762012,4.12903806 0.078218006,3.93072742 L2.0934427,0.231565191 C2.2016591,0.0330517836 2.46520048,-0.0476513384 2.68274426,0.0508956842 C2.90006591,0.149442655 2.98872776,0.390132555 2.88073361,0.588645962 L0.865286719,4.28780819 C0.788624142,4.42873446 0.633076971,4.51045143 0.47153011,4.51045143 L0.47153011,4.51045143 Z" id="Path"></path>
                                <path d="M3.38159547,4.51045143 C3.31582124,4.51045143 3.24915822,4.49686572 3.18627271,4.46847769 C2.96872886,4.36993072 2.88028916,4.12903806 2.98828336,3.93072742 L5.00350805,0.231565191 C5.11150226,0.0330517836 5.37526584,-0.0476513384 5.59280962,0.0508956842 C5.81013127,0.149442655 5.89879311,0.390132555 5.79079896,0.588645962 L3.77535208,4.28780819 C3.6986895,4.42873446 3.54314233,4.51045143 3.38159547,4.51045143 L3.38159547,4.51045143 Z" id="Path"></path>
                                <path d="M20.8848742,4.51045143 C20.8191,4.51045143 20.7524369,4.49686572 20.6895514,4.46847769 C20.4722298,4.36993072 20.3835679,4.12903806 20.4917843,3.93072742 L22.507009,0.231565191 C22.6150032,0.0330517836 22.8787667,-0.0476513384 23.0963106,0.0508956842 C23.3136322,0.149442655 23.4020719,0.390132555 23.2940777,0.588645962 L21.278853,4.28780819 C21.2019683,4.42873446 21.046421,4.51045143 20.8848742,4.51045143 L20.8848742,4.51045143 Z" id="Path"></path>
                                <path d="M23.7949396,4.51045143 C23.7291654,4.51045143 23.6625023,4.49686572 23.5996168,4.46847769 C23.3822951,4.36993072 23.2936333,4.12903806 23.4018496,3.93072742 L25.4170744,0.231565191 C25.5250685,0.0330517836 25.7888321,-0.0476513384 26.0061537,0.0508956842 C26.2236975,0.149442655 26.3121372,0.390132555 26.204143,0.588645962 L24.1889183,4.28780819 C24.1120336,4.42873446 23.9564864,4.51045143 23.7949396,4.51045143 L23.7949396,4.51045143 Z" id="Path"></path>
                            </g>
                        </g>
                    </g>
                </g>
            </g>
        </g>
    </g>
</svg>