<?xml version="1.0" encoding="UTF-8"?>
<svg width="64px" height="60px" viewBox="0 0 64 60" version="1.1" xmlns="http://www.w3.org/2000/svg" xmlns:xlink="http://www.w3.org/1999/xlink">
    <!-- Generator: sketchtool 53.2 (72643) - https://sketchapp.com -->
    <title>45F25802-D3FA-4FC4-A2B0-FB93EF4DBB3F</title>
    <desc>Created with sketchtool.</desc>
    <g id="Page-1" stroke="none" stroke-width="1" fill="none" fill-rule="evenodd">
        <g id="1.-home-page-copy-6" transform="translate(-98.000000, -144.000000)" fill-rule="nonzero">
            <g id="Group" transform="translate(20.000000, 20.000000)">
                <g id="Bitmap" transform="translate(0.000000, 65.000000)">
                    <g id="Group-2-Copy-4" transform="translate(45.000000, 23.000000)">
                        <g id="planting" transform="translate(33.000000, 36.000000)">
                            <g id="Group" transform="translate(3.000000, 1.000000)">
                                <path d="M32.4303856,33.9498558 C32.4730469,24.0496579 29.5230469,10.1238432 17.3851896,14.9117993 L12.7380568,17.3529372 C3.78164894,23.2066121 9.98763298,31.9175999 19.4388131,38.536531 C19.7658826,38.547227 20.0934425,38.5720225 20.4170794,38.6143207 C21.8758976,36.6068603 23.957962,35.0719722 26.3808262,34.2921305 C27.5375832,33.9148504 28.7757397,33.7135696 30.0604804,33.7135696 C30.8720247,33.7135696 31.6654255,33.7947627 32.4303856,33.9498558 Z" id="Path" fill="#E6E6E6"></path>
                                <path d="M10.3681516,19.3253923 C5.15171204,25.0482833 10.9977726,32.6269447 19.4388131,38.536531 C19.7658826,38.547227 20.0934425,38.5720225 20.4170794,38.6143207 C20.8584026,38.0041577 21.3600399,37.4392101 21.9082614,36.9243395 C14.6739943,31.6954131 9.01230887,24.9597974 10.3681516,19.3253923 Z" id="Path" fill="#B3ADAD"></path>
                                <path d="M18.5561668,17.0495574 L17.3851896,14.9117993 L15.8376163,12.0890055 L12.3109541,12.0890055 L11.3003241,14.7314244 L12.7380568,17.3529372 L13.9374751,19.536883 C14.2292386,20.0770353 14.9123089,20.2744266 15.4566073,19.9851461 L18.1074884,18.5562467 C18.6488448,18.2635629 18.851363,17.5858202 18.5561668,17.0495574 Z" id="Path" fill="#B3ADAD"></path>
                                <path d="M15.8444814,8.973528 L12.1648271,2.25930462 C11.0512217,0.227048717 8.46065498,-0.534804185 6.40752164,0.572726601 C4.3543883,1.67734033 3.58942819,4.24926234 4.70303361,6.28151824 L8.38268786,12.9923384 C9.04810505,14.2092609 10.2401679,14.9681968 11.5283412,15.1480854 C12.4001995,15.2715766 13.3147191,15.1266932 14.1439162,14.6823196 C15.0579455,14.188355 15.7164977,13.40511 16.0651429,12.5085837 C16.5030336,11.3937601 16.4638049,10.0990477 15.8444814,8.973528 Z" id="Path" fill="#F5DF87"></path>
                                <path d="M12.6595994,15.1582953 C12.2825133,15.2044829 11.9019947,15.2005935 11.5283412,15.1480854 L12.7380568,17.3529372 L13.9374751,19.536883 C14.2292386,20.0770353 14.9123089,20.2744266 15.4566073,19.9851461 L16.3216007,19.515977 C15.7807348,19.8052575 15.1010971,19.6039766 14.8054105,19.0711172 L13.6133477,16.8905747 L13.6064827,16.8837681 L12.6595994,15.1582953 Z" id="Path" fill="#757A85"></path>
                                <path d="M7.03763298,5.77005097 C5.92746011,3.74460173 6.68163225,1.18677907 8.7131898,0.0719554721 C7.93744185,0.0223646009 7.1371759,0.177457721 6.40752164,0.572726601 C4.3543883,1.67734033 3.58942819,4.24926234 4.70303361,6.28151824 L8.38268786,12.9923384 C9.04810505,14.2092609 10.2401679,14.9681968 11.5283412,15.1475992 C11.9019947,15.2005935 12.2825133,15.2044829 12.6595994,15.1582953 C13.1651596,15.0950912 13.6702295,14.9361085 14.1439162,14.6818335 C14.1507812,14.6784302 14.1615691,14.6716235 14.1723571,14.6682202 C14.0688913,14.6609275 13.9659159,14.6502313 13.8624502,14.636132 C13.0724817,14.5233369 12.321742,14.1985649 11.7029088,13.680291 C11.3111121,13.3521158 10.9732546,12.9495541 10.7167969,12.480385 L7.03763298,5.77005097 Z" id="Path" fill="#D9A13F"></path>
                                <path d="M0.0559008681,57.9596466 L58.9406666,57.9596466 C58.9406666,53.115293 55.1261636,49.1528803 50.3113281,48.8670031 L50.3113281,48.8495004 C50.3113281,43.1514049 45.6534076,38.5292382 39.9063997,38.5292382 L39.6469996,38.5331277 C38.1773936,36.5499765 36.0992519,35.0364807 33.6793302,34.2707383 C32.5407164,33.9075577 31.3236453,33.7130835 30.0604804,33.7130835 C28.7757397,33.7130835 27.5375832,33.9143643 26.3808262,34.2921305 C23.9574717,35.0714861 21.8758976,36.606374 20.4170794,38.6138346 C19.9831117,38.5574369 19.5417886,38.5292382 19.09311,38.5292382 C13.3426695,38.5292382 8.68474903,43.1514049 8.68474903,48.8495004 L8.68474903,48.8670031 C3.87040389,49.1528803 0.0559008681,53.115293 0.0559008681,57.9596466 L0.0559008681,57.9596466 Z" id="Path" fill="#A66D30"></path>
                                <path d="M20.3175365,57.9596466 L0.0559008681,57.9596466 C0.0559008681,53.115293 3.87040389,49.1528803 8.68523936,48.8670031 L8.68523936,48.8495004 C8.68523936,43.1514049 13.3431599,38.5292382 19.0936003,38.5292382 C19.5417886,38.5292382 19.9831117,38.5574369 20.4170794,38.6138346 C22.5736786,35.6466437 26.0890625,33.7130835 30.0604804,33.7130835 C32.5583693,33.7130835 34.8748254,34.4788257 36.7896775,35.7842341 C27.1320562,38.5929285 20.1753324,46.4535777 20.1753324,55.7120105 C20.1753324,56.4704601 20.2248587,57.222103 20.3175365,57.9596466 L20.3175365,57.9596466 Z" id="Path" fill="#6E3E0B"></path>
                                <path d="M16.6275847,49.2802608 C17.3567487,51.7354983 20.8191738,51.8487795 23.1930019,48.1085535 C23.5274269,47.5124899 23.4455369,47.0822157 22.8973155,46.739941 C19.8693484,45.0460703 15.8052527,46.4681632 16.6241523,49.2661615 L16.6275847,49.2802608 Z" id="Path" fill="#F5DF87"></path>
                                <path d="M22.8973155,46.739941 C19.8693484,45.0460703 15.8052527,46.4681632 16.6241523,49.2661615 L16.6275847,49.2802608 C16.9016955,50.197207 17.5563248,50.786464 18.392387,50.9736454 C18.221742,50.7407624 18.0864029,50.4689848 17.9937251,50.1587983 L17.9902926,50.1446989 C17.2537732,47.625285 20.4778839,46.2211809 23.3386387,47.2057069 C23.2636136,47.0326247 23.117977,46.8775315 22.8973155,46.739941 L22.8973155,46.739941 Z" id="Path" fill="#D9A13F"></path>
                                <path d="M27.9573305,46.3480753 C29.576496,48.3414365 32.8216922,47.1352099 33.5763547,42.7814176 C33.6582447,42.1036749 33.4125748,41.7404942 32.7755984,41.627213 C29.3239611,41.2110381 26.1179937,44.0620306 27.9504654,46.3373793 L27.9573305,46.3480753 Z" id="Path" fill="#F5DF87"></path>
                                <path d="M32.7755984,41.627213 C29.3239611,41.2110381 26.1175034,44.0620306 27.9504654,46.3373793 L27.9573305,46.3480753 C28.5624335,47.0924255 29.3950631,47.3924022 30.2419132,47.2441154 C29.9928108,47.096315 29.7618518,46.8950342 29.5588431,46.6446486 L29.5514877,46.6339526 C27.9004487,44.584194 30.3380236,42.06478 33.3625581,41.8921841 C33.2272191,41.7614002 33.0349983,41.6734006 32.7755984,41.627213 L32.7755984,41.627213 Z" id="Path" fill="#D9A13F"></path>
                                <path d="M34.7644947,53.1541879 C36.3870927,55.1475489 39.6327793,53.9374329 40.383519,49.5836407 C40.4654088,48.9097875 40.219739,48.5427173 39.5861951,48.4333255 C36.1345578,48.0137473 32.9251579,50.8676569 34.7576296,53.1434918 L34.7644947,53.1541879 Z" id="Path" fill="#F5DF87"></path>
                                <path d="M39.5861951,48.4333255 C36.1345578,48.0137473 32.9251579,50.8676569 34.7576296,53.1434918 L34.7644947,53.1541879 C35.3730302,53.8985381 36.2056599,54.1951114 37.0490775,54.050228 C36.7999751,53.8985381 36.5724485,53.7011468 36.3694398,53.4468717 L36.3591423,53.4361755 C34.707613,51.3864169 37.1491107,48.8708926 40.1697224,48.6978105 C40.0383062,48.5641094 39.8426529,48.4756236 39.5861951,48.4333255 L39.5861951,48.4333255 Z" id="Path" fill="#D9A13F"></path>
                            </g>
                            <path d="M63.0629882,58.1261636 L62.209961,58.1261636 C61.7817382,53.5101516 58.2226562,49.753693 53.6308594,49.0869412 C53.4829101,47.0393393 52.7885743,45.0913109 51.600586,43.4088119 C51.3017578,42.9861127 50.7172851,42.8850749 50.2944336,43.1833073 C49.871582,43.4820277 49.7705077,44.0662898 50.0688476,44.4889889 C51.1923827,46.0802124 51.7861327,47.9569773 51.7861327,49.9172083 L51.7861327,49.9352682 C51.7861327,50.4306951 52.1723632,50.8407036 52.6674805,50.870478 C56.6757812,51.1101377 59.8793945,54.2198567 60.3256836,58.1261636 L3.6708985,58.1261636 C4.1171875,54.2198567 7.32080075,51.1101377 11.3291015,50.870478 C11.8242188,50.8407036 12.2104492,50.4306951 12.2104492,49.9352682 L12.2104492,49.9172083 C12.2104492,44.720839 16.4394531,40.4933588 21.6376953,40.4933588 C21.7480469,40.4933588 21.8579101,40.4957993 21.9682617,40.4997041 C21.972168,40.4997041 21.9760742,40.5006804 21.9804688,40.5006804 C21.9814453,40.5006804 21.9824219,40.5001923 21.9833985,40.5001923 C22.2705078,40.5109306 22.5551758,40.5338715 22.8339844,40.5704795 C23.175293,40.615385 23.5141601,40.4689536 23.7163086,40.1892691 C25.7612305,37.3519129 29.0664062,35.6581875 32.5581055,35.6581875 C36.0126952,35.6581875 39.2988281,37.3240909 41.3481445,40.114589 C41.5249024,40.3547369 41.805664,40.4972636 42.1040039,40.4972636 C42.1523438,40.4972636 42.2006836,40.4957993 42.25,40.4948231 C42.2871094,40.4943349 42.3242188,40.4933588 42.3623047,40.4933588 C44.027832,40.4933588 45.668457,40.9355821 47.1069336,41.7721947 C47.5541992,42.0323548 48.1279297,41.8810422 48.3881836,41.4339378 C48.6489257,40.9868333 48.4970702,40.4133095 48.0498047,40.1526613 C46.383789,39.1837722 44.4921875,38.6561303 42.565918,38.6214748 C40.8481445,36.4606325 38.4770507,34.9274937 35.8520507,34.2216935 C35.8208007,31.323324 35.5439452,28.4986584 35.0429688,26.0107856 C34.940918,25.5036442 34.4467774,25.1746612 33.9394531,25.2766752 C33.4316406,25.3791774 33.1030274,25.87314 33.2055664,26.3802815 C33.6616211,28.6480187 33.9238281,31.2154527 33.9726562,33.8644004 C33.5048828,33.811685 33.0327149,33.7843511 32.5581055,33.7843511 C28.6489257,33.7843511 24.9394531,35.5952218 22.5263672,38.654666 C22.4521485,38.6488087 22.3774414,38.6458801 22.3027344,38.6414872 C15.6386719,33.8863651 11.8564452,28.9286793 11.9194336,25.0140746 C11.9516601,23.0187001 12.9848632,21.2258892 14.9916992,19.6732261 L15.6767577,20.9315617 C15.9365235,21.4157622 16.3706055,21.7681741 16.899414,21.9243678 C17.0927735,21.9814761 17.2905274,22.0097863 17.4868164,22.0097863 C17.8222656,22.0097863 18.1547851,21.9272965 18.4584961,21.7647575 C18.4604492,21.7637812 18.461914,21.762805 18.4638672,21.7618288 L21.1049805,20.3263111 C22.0991211,19.784026 22.4667969,18.5349645 21.9257812,17.5441107 L21.2797851,16.3570386 C23.5668945,15.6239043 25.5664062,15.6243924 27.2358399,16.3604553 C29.284668,17.2639382 30.915039,19.2876229 32.081543,22.3753772 C32.2231445,22.7502421 32.5795899,22.9811158 32.9584961,22.9811158 C33.0683594,22.9811158 33.1801757,22.9620798 33.2895507,22.9205909 C33.7734375,22.7380395 34.0180664,22.1972188 33.834961,21.7130183 C32.4838867,18.1376468 30.5180664,15.7600857 27.9921875,14.6462294 C25.8041992,13.6812451 23.243164,13.6978408 20.3710938,14.6872302 L19.6416015,13.3464049 C20.0273438,12.0246157 19.8798828,10.6364442 19.225586,9.4366812 L15.5615235,2.69594672 C14.9057617,1.48886216 13.8139649,0.607832076 12.4882812,0.215883469 C11.1621094,-0.176553088 9.7666015,-0.0306096893 8.5581055,0.626380141 C7.34960938,1.2819055 6.4677735,2.37379721 6.07519525,3.70046742 C5.6831055,5.02664956 5.82861325,6.42165464 6.484375,7.62873908 L10.1484375,14.3660569 C10.8061524,15.5746057 11.8989258,16.4561239 13.2246094,16.8485607 C13.3129883,16.8749183 13.4023438,16.8959068 13.4916992,16.9173835 L14.0854492,18.008787 C11.4472656,19.9597439 10.0883789,22.3026495 10.0454101,24.983812 C9.95898438,30.3578517 15.2167969,35.5483637 19.4301758,38.8367294 C14.5161133,39.8134281 10.7387695,43.9852642 10.366211,49.0869412 C5.77392575,49.753693 2.21484375,53.5101516 1.78662112,58.1261636 L0.93701175,58.1261636 C0.419433625,58.1261636 0,58.5459342 0,59.0633258 C0,59.5807175 0.419433625,60 0.93701175,60 L63.0629883,60 C63.5805664,60 64,59.5807175 64,59.0633258 C64,58.5459342 63.5805664,58.1261636 63.0629882,58.1261636 L63.0629882,58.1261636 Z M18.5732423,15.3046835 L20.2797851,18.4407602 C20.3256836,18.5252024 20.2924805,18.6355142 20.2080078,18.6813961 L17.5717774,20.1139852 C17.5131836,20.1447359 17.4589844,20.1359499 17.4311524,20.1276522 C17.399414,20.1183781 17.3564453,20.0969015 17.3266601,20.0412576 L15.6572265,16.9749798 C16.1757812,16.8763826 16.680664,16.6972479 17.15625,16.4385522 C17.7001953,16.1427603 18.1767578,15.7581333 18.5732423,15.3046835 Z M13.756836,15.0518449 C12.9106445,14.8014469 12.2138672,14.2396376 11.7954101,13.4708718 L8.131836,6.73404205 C7.71484375,5.9662524 7.62255862,5.07790071 7.87304688,4.23201421 C8.12304688,3.38563951 8.684082,2.69008946 9.4521485,2.27324745 C9.45263675,2.27324745 9.453125,2.27324745 9.45361325,2.27275937 C9.9384765,2.0091825 10.4716797,1.8749535 11.012207,1.8749535 C11.3271485,1.8749535 11.6450195,1.92034739 11.9570312,2.01259927 C12.8027344,2.26299727 13.4980469,2.82334218 13.915039,3.59064375 L17.5795899,10.3323545 C17.9970703,11.0981917 18.0898438,11.9855673 17.8398438,12.8314538 C17.8144531,12.9168722 17.7856445,12.9998501 17.7539062,13.0823398 C17.7524414,13.0867329 17.7495118,13.0911258 17.7475586,13.0960069 C17.7387695,13.1189478 17.7299805,13.1433531 17.7207031,13.1672702 C17.4335938,13.8618441 16.9248047,14.4314631 16.2607422,14.7921728 C15.6484375,15.1250607 14.959961,15.2505038 14.2773438,15.1616687 C14.2636719,15.1597161 14.25,15.1572756 14.2368164,15.1553232 C14.2314453,15.154347 14.225586,15.1548351 14.2197265,15.153859 C14.0649414,15.130918 13.9101562,15.0972386 13.756836,15.0518449 Z" id="Shape" fill="#000000"></path>
                            <path d="M26.0026116,46.8667646 C23.8021262,45.651075 20.9765317,45.7211635 19.2841998,47.0331013 C18.1766473,47.891932 17.7592358,49.143653 18.1348054,50.4728661 C18.1423672,50.5064297 18.1519454,50.5394996 18.1635402,50.5725695 C18.5723818,51.8884561 19.6199438,52.7818373 20.9724988,52.9649559 C21.1464203,52.9886477 21.3218541,53 21.4977922,53 C23.3368233,53 25.2696206,51.7339652 26.649902,49.5863951 C26.6589763,49.5715876 26.6680505,49.5572738 26.6766205,49.5419727 C27.2724907,48.493607 27.0355542,47.5020032 26.0429413,46.8904565 C26.0298341,46.8820656 26.0162228,46.8741683 26.0026116,46.8667646 L26.0026116,46.8667646 Z M24.9963873,48.600714 C23.6811374,50.6337735 22.150628,51.2122503 21.2381702,51.0878679 C20.6281845,51.0054399 20.2057318,50.6362414 20.0146701,50.0202525 C20.0121495,50.0108745 20.009629,50.0019901 20.0071083,49.992612 C19.8281456,49.3889627 19.984927,48.9072278 20.4855186,48.5187797 C21.4156206,47.7976581 23.365054,47.5972642 25.028651,48.5044659 C25.032684,48.5069337 25.0367169,48.5094016 25.0402458,48.5123632 C25.0301634,48.536055 25.016048,48.5651762 24.9963873,48.600714 Z" id="Shape" fill="#000000"></path>
                            <path d="M36.9794153,43.3687567 C37.1196338,42.1325172 36.5373376,41.2687443 35.420945,41.0583315 C35.4039046,41.0547303 35.3868641,41.052158 35.3693368,41.0501002 C32.9471593,40.7383394 30.4514643,41.9076996 29.4363407,43.8302244 C28.7722502,45.0870421 28.870111,46.4534391 29.7031454,47.5867873 C29.7206727,47.6130247 29.7391738,47.638233 29.7591354,47.6629269 C30.4285815,48.5313299 31.3487655,49 32.3278608,49 C32.6073242,49 32.8911692,48.9619303 33.1755012,48.8842473 C35.0533583,48.3687616 36.5086123,46.2749227 36.9725992,43.4181446 C36.9755204,43.4016819 36.9779548,43.3852193 36.9794153,43.3687567 L36.9794153,43.3687567 Z M35.1263887,43.1110138 C34.717418,45.5829785 33.5684052,46.735876 32.7056718,46.9725261 C32.1331129,47.1294353 31.6204389,46.9416587 31.2192582,46.4302886 C31.2119551,46.419485 31.2041652,46.4086815 31.1963753,46.3983924 C30.8098005,45.8870223 30.7679298,45.361762 31.0683285,44.7927729 C31.6262814,43.7371076 33.2894288,42.7848483 35.1147038,43.0070936 C35.1210331,43.0081224 35.1268756,43.0096658 35.1322312,43.0106948 C35.1317443,43.0374464 35.1302837,43.0703717 35.1263887,43.1110138 Z" id="Shape" fill="#000000"></path>
                            <path d="M36.7453151,54.6459922 C37.4162163,55.5246567 38.3427222,56 39.3281389,56 C39.6085737,56 39.8933902,55.9614169 40.1786937,55.8827074 C42.0565356,55.3662091 43.5103173,53.2703779 43.9723532,50.4142035 C43.9747875,50.3982558 43.9772218,50.3823082 43.9791692,50.3658461 C44.1203604,49.1265585 43.5375818,48.2638416 42.4202245,48.0580654 C42.4046448,48.0554932 42.3890651,48.052921 42.3734854,48.0508631 C39.9503535,47.73654 37.4546787,48.9053491 36.4371288,50.8293571 C35.7696357,52.0923088 35.870417,53.4648365 36.7131819,54.6012359 C36.7234061,54.616669 36.7341171,54.6315878 36.7453151,54.6459922 L36.7453151,54.6459922 Z M38.0686167,51.79239 C38.6280257,50.7347 40.2945678,49.781956 42.1193413,50.0077955 C42.1237231,50.0083099 42.127618,50.0093387 42.1315129,50.0103676 C42.1310261,50.0360896 42.1295656,50.0684994 42.1256707,50.1081113 C41.7186506,52.5799986 40.5701339,53.7344033 39.7074075,53.9715605 C39.1377743,54.1284649 38.6260781,53.9437807 38.2249006,53.4380855 C38.2117553,53.4195658 38.1986099,53.4015603 38.1844908,53.3840693 C37.8086303,52.8773453 37.7706547,52.3567313 38.0686167,51.79239 L38.0686167,51.79239 Z" id="Shape" fill="#000000"></path>
                        </g>
                    </g>
                </g>
            </g>
        </g>
    </g>
</svg>