<?xml version="1.0" encoding="UTF-8"?>
<svg width="26px" height="26px" viewBox="0 0 26 26" version="1.1" xmlns="http://www.w3.org/2000/svg" xmlns:xlink="http://www.w3.org/1999/xlink">
    <!-- Generator: sketchtool 53.2 (72643) - https://sketchapp.com -->
    <title>5FC59154-EB03-4BAB-B688-A9963BD95B00</title>
    <desc>Created with sketchtool.</desc>
    <g id="Page-1" stroke="none" stroke-width="1" fill="none" fill-rule="evenodd">
        <g id="1.-home-page-copy-5" transform="translate(-32.000000, -107.000000)">
            <g id="Group-3" transform="translate(20.000000, 85.000000)">
                <g id="Group-2">
                    <g transform="translate(10.000000, 20.000000)" id="Group-5">
                        <g>
                            <g id="plant">
                                <g id="Group">
                                    <rect id="Rectangle" x="0" y="0" width="30" height="30"></rect>
                                    <g transform="translate(13.596856, 2.000000)" fill="#558B30" fill-rule="nonzero" id="Path">
                                        <path d="M3.70741023,2.58133871 C2.22938351,1.91037097 0.0165740474,2.17875806 0.0165740474,2.17875806 C0.0165740474,2.17875806 0.683368361,4.46450403 1.56681981,5.55597984 C2.00217473,6.05574597 2.66120463,6.26657661 3.28693711,6.10617339 L3.70741023,2.58133871 Z"></path>
                                        <path d="M13.0634846,0.175342742 C13.0634846,0.175342742 11.6873908,5.42676613 9.8695712,7.94960484 C9.07531101,9.01518548 7.78064402,9.52150403 6.51852786,9.26024597 C5.64373672,9.11279032 4.83693402,8.67383065 4.21652713,8.00779032 C2.66628136,6.33037097 2.54737626,3.41837097 4.26749356,1.88410887 C5.82196994,0.501915323 8.30235321,0.121717742 10.2305669,0.0590766129 L10.2560501,0.0590766129 C11.193305,0.0249516129 12.1316549,0.0637943548 13.0634846,0.175342742 Z"></path>
                                    </g>
                                    <path d="M25.3861793,2.17534274 C25.3861793,2.17534274 24.0100855,7.42676613 22.1922659,9.94960484 C21.6861353,10.6519194 20.9421448,11.1214395 20.1153835,11.260246 C19.2405924,11.1127903 18.4337897,10.6738306 17.8133828,10.0077903 C16.263137,8.33037097 16.1442319,5.41837097 17.8643492,3.88410887 C19.4188256,2.50191532 21.8992089,2.12171774 23.8274225,2.05907661 L23.8529058,2.05907661 C24.7788126,2.09037097 25.3861793,2.17534274 25.3861793,2.17534274 Z" id="Path" fill="#8BC34A" fill-rule="nonzero"></path>
                                    <path d="M22.8378574,20.5777339 C22.6462355,21.1918266 22.3032572,21.7413387 21.8440118,22.1701815 C21.3869563,22.6024839 20.8306059,22.9015887 20.230058,23.0379839 L15.2863135,24.156246 C14.8503613,24.253746 14.4008711,24.2643871 13.9611861,24.1875403 L13.9017086,24.1785766 C13.9399334,24.1696129 13.9739277,24.1651573 14.0121027,24.1561935 L18.9558473,23.0379315 C19.5563952,22.9015887 20.1126958,22.6024315 20.5698011,22.170129 C21.0290465,21.7412863 21.3720248,21.1917742 21.5636466,20.5776815 C21.5618548,19.7997782 21.0168026,19.1418105 20.2852551,19.0344556 C20.2886893,19.0275887 20.2901825,19.0198306 20.2894857,19.0120726 C20.289635,18.5374677 20.1106552,18.0823105 19.7920154,17.7467218 C19.4733756,17.4111331 19.0412061,17.2226855 18.5905712,17.2227903 C18.4720145,17.2226855 18.3538062,17.2361573 18.2380367,17.2630484 C17.7987498,16.3506371 16.9862234,15.701004 16.0337383,15.5006573 C16.2462643,15.4555242 16.4625233,15.4330887 16.6793297,15.4335605 C17.875299,15.433246 18.9701318,16.1402782 19.5121977,17.2630484 C19.6279672,17.2361573 19.7461755,17.2226855 19.8647322,17.2227903 C20.3153671,17.2226331 20.7475366,17.4111331 21.0661764,17.7467218 C21.3848161,18.0823105 21.5637462,18.5374677 21.5636466,19.0120726 C21.5642937,19.0197782 21.5628503,19.0275887 21.559416,19.0344556 C22.2910134,19.1418629 22.8360656,19.7998306 22.8378574,20.5777339 Z" id="Path" fill="#F57C00" fill-rule="nonzero"></path>
                                    <path d="M21.5636964,20.5777339 C21.3720745,21.1918266 21.0290963,21.7413387 20.5698508,22.1701815 C20.1127954,22.6024839 19.5564449,22.9015887 18.955897,23.0379839 L14.0121525,24.156246 C13.9739277,24.1652097 13.9399334,24.1696653 13.9017584,24.178629 L10.7545808,23.6239798 C9.384808,23.3782379 8.27837838,22.3109274 7.92594347,20.8953952 L7.12322206,17.6702944 C7.12272434,16.6985968 7.71844436,15.8379234 8.59701817,15.5410726 C8.74175489,15.4917984 8.89136926,15.4602944 9.0429745,15.4471371 C9.11061453,15.4382258 9.17870251,15.4337177 9.24684026,15.4337177 C9.56189646,15.4356048 9.87252297,15.5120323 10.1557252,15.6573911 C10.5026354,15.1493427 11.0075714,14.7853427 11.5827854,14.6285565 C11.7904339,14.5691129 12.0047019,14.5390242 12.2198659,14.5390766 C12.3249842,14.5397056 12.4299532,14.5471492 12.5341755,14.5614597 C12.9059717,14.6088468 13.2629857,14.7433548 13.5789875,14.9550766 C13.6861962,14.6687621 13.8822976,14.4291008 14.1353877,14.2751452 C14.3266612,14.1547903 14.5454088,14.0913629 14.7682376,14.0917298 C15.1062884,14.0912581 15.430652,14.2324758 15.6697065,14.484246 C15.908761,14.7360161 16.0428465,15.0776331 16.0423986,15.4336653 C16.041652,15.4562581 16.038815,15.478746 16.0338876,15.5007621 C16.9863727,15.7011613 17.7988992,16.3507944 18.2381861,17.2631532 C18.3539555,17.2362621 18.4721638,17.2227903 18.5907205,17.2228952 C19.0413554,17.2227379 19.4735249,17.4112379 19.7921647,17.7468266 C20.1108045,18.0824153 20.2897345,18.5375726 20.289635,19.0121774 C20.290282,19.0198831 20.2888386,19.0276935 20.2854044,19.0345605 C21.0168524,19.1418629 21.5619046,19.7998306 21.5636964,20.5777339 Z" id="Path" fill="#FF9801" fill-rule="nonzero"></path>
                                    <path d="M5.84901132,18.3412097 L5.84901132,26.3928226 C5.84507934,27.25575 5.18181883,27.9542903 4.36247361,27.9584315 L3.51306615,27.9584315 C2.69247662,27.9574879 2.02742432,27.2571129 2.02652843,26.3928226 L2.02652843,18.3412097 C2.02742432,17.4769718 2.69242685,16.7765444 3.51306615,16.7756008 L4.36252338,16.7756008 C4.95834295,16.7763871 5.49632755,17.1511855 5.73010622,17.728375 C5.80894493,17.9220121 5.8494095,18.1305363 5.84901132,18.3412097 Z" id="Path" fill="#0377BC" fill-rule="nonzero"></path>
                                    <path d="M4.57485036,18.3412097 L4.57485036,26.3928226 C4.58226637,26.7832419 4.48088099,27.1673185 4.28318695,27.4976653 C4.1397443,27.766629 3.87625179,27.9402419 3.58384181,27.958379 L3.01753698,27.958379 C2.47109115,27.958379 2.02652843,27.2561169 2.02652843,26.3927702 L2.02652843,18.3411573 C2.02652843,17.4778629 2.47109115,16.7755484 3.01753698,16.7755484 L3.58384181,16.7755484 C3.99157331,16.7755484 4.34550139,17.1691653 4.4955637,17.7283226 C4.54891919,17.9277782 4.57559694,18.1340484 4.57485036,18.3412097 Z" id="Path" fill="#2296F3" fill-rule="nonzero"></path>
                                    <path d="M26.0997094,21.9510161 L18.140434,27.0548266 C17.7625159,27.2983145 17.336966,27.4482339 16.8959869,27.4932097 C16.7959453,27.506 16.695207,27.5119758 16.5944189,27.5110847 L5.42430759,27.5110847 L5.41156598,27.4976653 C5.69218003,27.2060565 5.84980767,26.8079839 5.84901132,26.3928226 L5.84901132,18.3412097 C5.84985745,18.2677702 5.84418345,18.1943831 5.8320391,18.1220444 L5.8320391,18.1175887 C5.81621163,17.9833427 5.78186901,17.8522419 5.73010622,17.7284274 L5.84478071,17.6702944 L7.0382614,17.6702944 C7.9180795,17.6716048 8.77146872,17.9869597 9.45916724,18.5649355 C10.1468658,19.1429113 11.000255,19.4582661 11.8800731,19.4595766 L14.1013438,19.4595766 C14.8481215,19.4584234 15.5403493,19.8713831 15.9233939,20.5465444 L15.9616188,20.6136411 C16.3237094,21.2510605 16.2274008,22.0662339 15.7280392,22.5907419 L16.7261153,22.5907419 C16.9095746,22.5908468 17.0918394,22.5590806 17.2654936,22.4968065 L23.8656474,20.1797137 L25.1270667,19.736875 C25.6028862,19.5723306 26.1253917,19.745 26.4267109,20.1662944 L26.4267109,20.17075 C26.6241063,20.4468427 26.701203,20.7981048 26.6388388,21.1374677 C26.5765244,21.4767258 26.3806221,21.772371 26.0997094,21.9510161 Z" id="Path" fill="#A98B7F" fill-rule="nonzero"></path>
                                    <path d="M24.8382901,22.3983105 L16.8960367,27.4932097 C16.7959951,27.506 16.6952568,27.5119758 16.5944686,27.5110847 L5.42430759,27.5110847 L5.41156598,27.4976653 C5.69218003,27.2060565 5.84980767,26.8079839 5.84901132,26.3928226 L5.84901132,18.3412097 C5.84901132,18.3054073 5.84901132,18.0012702 5.84478071,17.6702419 L7.0382614,17.6702419 C7.9180795,17.6715524 8.77146872,17.9869073 9.45916724,18.5648831 C10.1468658,19.1428589 11.000255,19.4582137 11.8800731,19.4595242 L12.100911,19.4595242 L12.8399244,19.9068185 C13.5867022,19.9056653 14.2789299,20.318625 14.6619746,20.9937863 L14.7001994,21.0608831 C15.0622901,21.6983024 14.9659814,22.5134758 14.4666198,23.0379839 L15.464696,23.0379839 C15.6481553,23.0380887 15.83042,23.006375 16.0040742,22.9440484 L23.8656474,20.1841169 C24.3414668,20.0195726 24.8639724,20.1922419 25.1652915,20.6135363 L25.1652915,20.6179919 C25.362687,20.8940847 25.4397836,21.2453468 25.3774692,21.5847097 C25.3151548,21.9240202 25.1192028,22.2196653 24.8382901,22.3983105 Z" id="Path" fill="#EEC1B0" fill-rule="nonzero"></path>
                                </g>
                                <g id="Group" transform="translate(2.000000, 2.000000)" fill="#000000" fill-rule="nonzero">
                                    <path d="M23.1416742,17.1796016 L21.3357083,17.8004531 C21.1477992,17.2195156 20.7080152,16.7620781 20.1463068,16.5632695 C19.9834129,15.4567969 19.0307197,14.6599375 17.9472386,14.7239219 C17.2460758,13.5630117 15.9791667,12.8980313 14.6564167,12.9964961 C14.513072,12.418707 14.0923939,11.9571055 13.5420606,11.7737344 C13.9349659,10.4556055 14.6364242,9.25742188 15.5844886,8.28491016 C15.6351591,8.34473047 15.6826288,8.40764844 15.7362538,8.46447266 C16.5822386,9.35487109 17.7381061,9.85973828 18.9468598,9.86689844 C19.032,9.86689844 19.1175833,9.86435938 19.2027235,9.858875 C20.2920152,9.80789063 21.303553,9.26224609 21.9654205,8.36864844 C23.7947765,5.88712109 25.1407197,0.900199219 25.1969545,0.689050781 C25.2293068,0.568191406 25.2093144,0.438800781 25.1420985,0.334292969 C25.0748826,0.229785156 24.9670909,0.16046875 24.8464962,0.14421875 C24.5988561,0.110347656 18.7453598,-0.647359375 15.8191288,1.90125 C15.6124091,2.08116797 15.4249432,2.28327734 15.2598333,2.50422656 C14.1076591,2.17678906 12.905947,2.07639453 11.717678,2.20827344 C11.5936364,2.223 11.4823977,2.29389062 11.4140492,2.40164844 C11.3457008,2.50940625 11.3273333,2.64291016 11.3639697,2.76605469 C11.3920871,2.86 12.0597159,5.0789375 12.9782841,6.19018359 C13.3853712,6.66635938 13.9753447,6.93326563 14.5907765,6.91975781 C14.6510492,6.91975781 14.7121098,6.91498438 14.7731212,6.91026172 C14.8600341,7.13471484 14.9629508,7.35221094 15.0809848,7.56102344 C13.9378712,8.70507422 13.1111402,10.1426914 12.6859318,11.7258477 C12.28825,11.8127344 11.9341477,12.0441445 11.6881326,12.3778789 C10.5318712,11.8511758 9.17849242,12.1482461 8.33043939,13.1148164 C8.0830947,13.0302656 7.82427652,12.9870508 7.56368561,12.9867969 C6.33469318,12.9889297 5.28602652,13.903957 5.08043939,15.1534805 L4.30211364,15.1534805 C3.9516553,14.6122539 3.36237121,14.2871523 2.73132955,14.2867969 L1.89090909,14.2867969 C0.847068182,14.2879648 0.00113257576,15.1603359 0,16.2367969 L0,24.0367969 C0.00113257576,25.1132578 0.847068182,25.9856289 1.89090909,25.9867969 L2.73132955,25.9867969 C3.15914773,25.984918 3.573375,25.8319648 3.90517045,25.5534805 L14.8330492,25.5534805 C15.4496136,25.5535313 16.0543106,25.3786406 16.5809583,25.0480039 L24.4572841,20.1037891 C25.140178,19.6741797 25.4017045,18.7844922 25.0650341,18.0362305 C24.7283636,17.287918 23.9007462,16.9192969 23.1416742,17.1796016 L23.1416742,17.1796016 Z M16.3611894,2.56348828 C17.9699886,1.16278906 20.7033371,0.886640625 22.608625,0.886640625 C23.2902386,0.886640625 23.8659318,0.921984375 24.2461326,0.953722656 C23.8577083,2.27870703 22.7052386,5.93302734 21.2965114,7.84433203 C20.7814356,8.53556641 19.9961667,8.95644141 19.1516098,8.99386719 C18.0993977,9.05119922 17.0743182,8.63809375 16.3386364,7.86017578 C16.2851591,7.80350391 16.237197,7.74139844 16.1873636,7.68107031 C17.0677689,6.85770313 18.0441477,6.15052344 19.0939962,5.57583203 C19.3024394,5.47061328 19.3887121,5.21101953 19.2866818,4.9960625 C19.1846515,4.78110547 18.9329242,4.69213672 18.7244811,4.79735547 C17.6359773,5.38032422 16.6224697,6.10157031 15.7076932,6.94423438 C15.3952008,6.32074219 15.2462917,5.62382031 15.2756402,4.92263281 C15.3010985,4.01420703 15.6948902,3.15839063 16.3611894,2.56348828 Z M13.6192235,5.62920313 C13.0652955,4.83635547 12.6333902,3.96007422 12.3387235,3.03133594 C13.1707235,2.98146875 14.0052348,3.06195703 14.8138939,3.26995703 C14.5890038,3.77675391 14.4607765,4.32341406 14.4362538,4.88017969 C14.420053,5.27287109 14.4508788,5.66612109 14.5280909,6.05104297 C14.1811288,6.04835156 13.8512538,5.89524609 13.6192235,5.62920313 Z M7.56363636,13.8534297 C7.81221212,13.8550039 8.05729167,13.9141641 8.28070455,14.0264922 C8.46398485,14.1161719 8.68316288,14.0582305 8.80203409,13.8887734 C9.44863636,12.9567852 10.6890038,12.7088203 11.6264811,13.3240352 C11.7329924,13.393707 11.8642235,13.4103125 11.9839318,13.3692813 C12.1036402,13.32825 12.1991212,13.2339492 12.2440303,13.1124297 C12.3623106,12.7888516 12.6576667,12.5703906 12.9928106,12.5586094 C13.0040379,12.5595234 13.0154129,12.5620625 13.0265909,12.5620625 C13.0371288,12.5620625 13.0465833,12.5573906 13.0570227,12.5565781 C13.5005985,12.5704414 13.8563258,12.9392656 13.8674053,13.3967539 C13.8657803,13.4087891 13.861447,13.4498711 13.8606591,13.4619063 C13.8532727,13.5962227 13.9067992,13.7264766 14.0055303,13.8144297 C14.1042614,13.9023828 14.2370189,13.9380313 14.364803,13.9109141 C14.5465568,13.872625 14.7316098,13.8533789 14.9171553,13.8533789 C15.9431705,13.8519063 16.8827159,14.4456914 17.3472689,15.3891055 C17.4336894,15.5634375 17.6228295,15.6562148 17.8085227,15.6152852 C18.1767576,15.5374883 18.5595189,15.6323477 18.8532008,15.8742695 C19.1469318,16.1161914 19.32125,16.4801406 19.3290795,16.8677031 C19.3280455,16.8820742 19.3272576,16.8966992 19.3272576,16.9083281 C19.3273068,17.1239961 19.4811402,17.3067578 19.6881553,17.3372266 C20.0836705,17.3974531 20.4119697,17.6834023 20.5357159,18.0754336 L15.3636364,19.8534883 C15.2350644,19.897668 15.1004848,19.9201641 14.9649697,19.9201133 L14.7235341,19.9201133 C14.9231629,19.3557305 14.8655,18.7286328 14.5665,18.213 L14.5291742,18.1493203 C14.0719583,17.3679492 13.2524167,16.8892852 12.3674318,16.8867969 L10.1695947,16.8867969 C9.39427273,16.8857813 8.64224242,16.6137461 8.03616667,16.115125 C7.42836742,15.6165039 6.70017045,15.2983086 5.93001894,15.1948672 C6.10660227,14.4108555 6.78319318,13.8553086 7.56363636,13.8534297 Z M1.89090909,25.1201133 C1.3110303,25.1194023 0.841060606,24.6347969 0.840420455,24.0367969 L0.840420455,16.2367969 C0.841109848,15.6387969 1.3110303,15.1541406 1.89090909,15.1534805 L2.73132955,15.1534805 C3.31120833,15.1541914 3.78117803,15.6387969 3.78181818,16.2367969 L3.78181818,24.0367969 C3.78112879,24.6347969 3.31120833,25.1194023 2.73132955,25.1201133 L1.89090909,25.1201133 Z M24.3584053,18.8621875 C24.3202917,19.0713555 24.1973333,19.2537617 24.0204545,19.3634492 L16.1439318,24.3078672 C15.7489583,24.5557813 15.2954356,24.6868984 14.8330492,24.6867969 L4.50607576,24.6867969 C4.58082576,24.4786445 4.62012121,24.2587617 4.62223864,24.0367969 L4.62223864,16.2367969 C4.61918561,16.1642305 4.6120947,16.0918672 4.60101515,16.0201133 L5.37791288,16.0201133 C6.15323485,16.0211289 6.90526515,16.2931641 7.51134091,16.7917852 C8.26642424,17.4131953 9.20355682,17.7522109 10.1695947,17.7534805 L12.3674318,17.7534805 C12.957553,17.7552578 13.5039962,18.0745195 13.8088068,18.5955859 L13.8461326,18.6592656 C14.075553,19.053582 14.0509318,19.5518477 13.7838902,19.9201133 L11.2298826,19.9201133 C10.4002462,19.91925 9.58902652,20.1725977 8.89928788,20.6479609 L8.59132576,20.8595664 C8.46565909,20.945082 8.39391288,21.0934141 8.40336742,21.2483477 C8.41277273,21.403332 8.50190152,21.5412539 8.63697348,21.6098594 C8.77204545,21.6785156 8.93237879,21.6673438 9.05730682,21.5806094 L9.36526894,21.3690039 C9.91717803,20.9887031 10.5661439,20.7860352 11.2299318,20.7867461 L14.9649697,20.7867461 C15.1907955,20.7867461 15.4150947,20.7492188 15.6293485,20.6756367 L20.9905682,18.8327344 C20.9974129,18.8330898 21.0031742,18.8367969 21.0100682,18.8367969 C21.1043182,18.8350703 21.195072,18.8000313 21.2673106,18.7375703 L23.4075833,18.0018516 C23.707125,17.8987148 24.037,18.0056602 24.2254015,18.2669805 C24.3501326,18.4366914 24.3984886,18.6533242 24.3584053,18.8621875 Z" id="Shape"></path>
                                    <path d="M9.60187879,15.5781133 C9.8292803,15.6257461 10.0511174,15.4743164 10.0974053,15.2398086 C10.158072,14.9376094 10.4159545,14.7207227 10.7152008,14.7201133 C10.851553,14.7196562 10.9842614,14.765207 11.0931364,14.8498086 C11.2786818,14.9925039 11.5411439,14.9535547 11.6801553,14.7627695 C11.8191667,14.5719844 11.7823826,14.301168 11.5978712,14.1571016 C11.3437311,13.9591562 11.0337008,13.8525156 10.7152008,13.8534805 C10.016697,13.8551055 9.41505303,14.3616992 9.27382576,15.0671523 C9.22763636,15.3016602 9.37447727,15.5303789 9.60187879,15.5781133 Z" id="Path"></path>
                                    <path d="M14.5189318,15.6940469 C14.7690341,15.524793 15.0999432,15.5595273 15.3119318,15.7771758 C15.4086932,15.8763008 15.4713295,16.0053867 15.4902386,16.1446797 C15.5197348,16.3580117 15.6967614,16.5165508 15.9057462,16.5168555 C15.9257879,16.5168047 15.9457803,16.5153828 15.9656742,16.5126406 C16.1954394,16.4787695 16.3551326,16.2593437 16.3224848,16.0223984 C16.2510833,15.5076797 15.9290379,15.0664922 15.4691136,14.8533633 C15.0091894,14.6402344 14.4754508,14.6848711 14.0548712,14.9716328 C13.9294508,15.0569961 13.857803,15.2049727 13.8669129,15.3596523 C13.876072,15.514332 13.9646591,15.6522031 14.0991894,15.7212148 C14.2337689,15.7902773 14.3938068,15.7798672 14.5189318,15.6940469 L14.5189318,15.6940469 Z" id="Path"></path>
                                </g>
                            </g>
                        </g>
                    </g>
                </g>
            </g>
        </g>
    </g>
</svg>