<?xml version="1.0" encoding="UTF-8"?>
<svg width="21px" height="22px" viewBox="0 0 21 22" version="1.1" xmlns="http://www.w3.org/2000/svg" xmlns:xlink="http://www.w3.org/1999/xlink">
    <!-- Generator: sketchtool 53.2 (72643) - https://sketchapp.com -->
    <title>791EA70A-EC19-4896-B1FD-7AD80220F625</title>
    <desc>Created with sketchtool.</desc>
    <g id="Page-1" stroke="none" stroke-width="1" fill="none" fill-rule="evenodd">
        <g id="1.-home-page-copy-5" transform="translate(-35.000000, -309.000000)">
            <g id="Group-3" transform="translate(20.000000, 85.000000)">
                <g id="Group-2">
                    <g transform="translate(10.000000, 20.000000)" id="Group-8">
                        <g transform="translate(0.000000, 200.000000)">
                            <g id="scroll">
                                <rect id="Rectangle" x="0" y="0" width="30" height="30"></rect>
                                <path d="M9.25417331,10.2368711 L5.64790438,10.2368711 C5.48626295,10.2368711 5.35524303,10.102293 5.35524303,9.93626172 L5.35524303,6.32478125 C5.35524303,5.21889453 6.22803984,4.32235156 7.30472908,4.32235156 L7.30472908,4.32235156 C8.38137649,4.32235156 9.25421514,5.21885156 9.25421514,6.32478125 L9.25417331,10.2368711 L9.25417331,10.2368711 Z" id="Path" fill="#DDA33C" fill-rule="nonzero"></path>
                                <path d="M9.25421514,6.32456641 L9.25421514,10.2367422 L8.08110159,10.2367422 L8.08110159,6.32456641 C8.08110159,5.77142969 7.86286056,5.27114453 7.51000199,4.90870312 C7.2909243,4.68410547 7.02043426,4.51274609 6.71815139,4.41486328 C6.90334462,4.35475 7.10029283,4.32252344 7.30472908,4.32252344 C7.84324104,4.32252344 8.3302988,4.54669141 8.68315737,4.90870312 C9.0359741,5.27114453 9.25421514,5.77142969 9.25421514,6.32456641 Z" id="Path" fill="#BC802A" fill-rule="nonzero"></path>
                                <path d="M11.5839602,4.32209375 L7.30460359,4.32209375 C7.84294821,4.32226563 8.33013147,4.55640234 8.68336653,4.93478516 C9.0360996,5.31368359 9.25434064,5.8363125 9.25434064,6.4138125 L9.25434064,11.1686484 L9.25434064,12.0498516 L9.92303586,13.3026914 C9.95784064,13.367832 9.94788446,13.4485273 9.89839641,13.5027109 L9.29943625,14.1590156 C9.27036255,14.1908984 9.25421514,14.2328789 9.25421514,14.2765352 L9.25739442,23.2767266 C9.25785458,24.602957 10.2602072,25.6778633 11.4965299,25.6778633 L22.0732928,25.6778633 L22.073251,10.0778008 C22.073251,10.028043 22.0522092,9.98069141 22.0156474,9.94807813 L21.3963566,9.39584375 C21.3121056,9.32073438 21.3217271,9.18357813 21.4155578,9.12166016 L21.996488,8.73803516 C22.0443446,8.70641016 22.0732928,8.65196875 22.0732928,8.59353125 L22.0732928,6.18942969 C22.0732928,5.15822266 21.2940339,4.32222266 20.3327191,4.32222266 L13.4589004,4.32222266 L11.5839602,4.32209375 Z" id="Path" fill="#FFCD43" fill-rule="nonzero"></path>
                                <path d="M21.3962729,9.39588672 L22.0154382,9.94816406 C22.0522092,9.98082031 22.0731255,10.028043 22.0731255,10.0778438 L22.0731255,25.6780781 L20.5161972,25.6780781 L20.5161972,10.0778438 C20.5161972,10.028043 20.4952809,9.98077734 20.45851,9.94816406 L19.8393446,9.39588672 C19.7548845,9.32073438 19.764506,9.18375 19.8585876,9.12148828 L20.4393088,8.73799219 C20.4873745,8.70619531 20.516239,8.65209766 20.516239,8.59370313 L20.516239,6.18930078 C20.516239,5.15822266 19.7369382,4.32209375 18.775749,4.32209375 L20.3326773,4.32209375 C21.2938665,4.32209375 22.0731673,5.15822266 22.0731673,6.18930078 L22.0731673,8.59374609 C22.0731673,8.65214063 22.0443028,8.70623828 21.9966554,8.73803516 L21.4155159,9.12153125 C21.3218944,9.18375 21.3122729,9.32073438 21.3962729,9.39588672 Z" id="Path" fill="#FFAF45" fill-rule="nonzero"></path>
                                <path d="M25.3520956,21.4953711 C25.5137371,21.4953711 25.644757,21.6299492 25.644757,21.7959805 L25.644757,23.6218945 C25.644757,24.7574297 24.7866434,25.6779492 23.7281514,25.6779492 L11.4531912,25.6779492 C12.5298805,25.6779492 13.4029283,24.7414023 13.4029283,23.5864023 L13.4029283,21.7959375 C13.4029283,21.6299063 13.5339482,21.4953281 13.6955896,21.4953281 L25.3520956,21.4953281 L25.3520956,21.4953711 Z" id="Path" fill="#DDA33C" fill-rule="nonzero"></path>
                                <path d="M25.3521793,21.4953711 C25.5138207,21.4953711 25.6448406,21.6299492 25.6448406,21.7959805 L25.6448406,23.6219375 C25.6448406,24.7573867 24.7865179,25.6780781 23.7279422,25.6780781 L22.4113845,25.6780781 C23.4695418,25.6780781 24.3279064,24.7573438 24.3279064,23.6219375 L24.3279064,21.4953711 L25.3521793,21.4953711 Z" id="Path" fill="#BC802A" fill-rule="nonzero"></path>
                                <path d="M25.3520956,21.1732344 L22.3868287,21.1732344 L22.3868287,10.0778008 C22.3868287,9.93458594 22.3264641,9.79863281 22.2212131,9.70478906 L21.7493406,9.28408203 L22.1660777,9.00895312 C22.3042928,8.91760156 22.3868287,8.7623125 22.3868287,8.59353125 L22.3868287,6.18947266 C22.3868287,4.98230859 21.4653386,4.00021484 20.3326773,4.00021484 L13.5559522,4.00021484 C13.3827649,4.00021484 13.2423745,4.144375 13.2423745,4.32230859 C13.2423745,4.50024219 13.3827649,4.64440234 13.5559522,4.64440234 L20.3326773,4.64440234 C21.033751,4.64440234 21.6179861,5.194875 21.7370837,5.91752344 L20.0967829,5.91752344 C19.9235956,5.91752344 19.7832052,6.06168359 19.7832052,6.23961719 C19.7832052,6.41755078 19.9235956,6.56171094 20.0967829,6.56171094 L21.7597151,6.56171094 L21.7597151,6.95766797 L20.6863725,6.95766797 C20.5131853,6.95766797 20.3727948,7.10182812 20.3727948,7.27976172 C20.3727948,7.45769531 20.5131853,7.60185547 20.6863725,7.60185547 L21.7597151,7.60185547 L21.7597151,8.51167578 L21.2458845,8.85091406 C21.1173327,8.93586328 21.0373486,9.07430859 21.0263884,9.23092969 C21.0154283,9.38750781 21.0753327,9.53635156 21.1907908,9.63926172 L21.7597151,10.1465078 L21.7597151,21.1733203 L13.6955896,21.1733203 C13.3613466,21.1733203 13.0893506,21.4526602 13.0893506,21.7960234 L13.0893506,23.5864453 C13.0893506,24.5542734 12.3670677,25.3426641 11.4748187,25.3552969 C10.4234801,25.3426211 9.57130677,24.4153555 9.57088845,23.2767695 L9.57026096,21.549125 L11.4531076,21.549125 C11.6262948,21.549125 11.7666853,21.4049648 11.7666853,21.2270313 C11.7666853,21.0490977 11.6262948,20.9049375 11.4531076,20.9049375 L9.57000996,20.9049375 L9.56984263,20.3896133 L10.3972092,20.3896133 C10.5703964,20.3896133 10.7107869,20.2454531 10.7107869,20.0675195 C10.7107869,19.8895859 10.5703964,19.7454258 10.3972092,19.7454258 L9.56959163,19.7454258 L9.56766733,14.3360039 L10.1270538,13.7230117 C10.2696195,13.5667344 10.2980657,13.3356055 10.1978347,13.147875 L9.56779283,11.9673945 L9.56779283,6.41385547 C9.56779283,6.41144922 9.5676255,6.40908594 9.5676255,6.40667969 L9.5676255,6.32478125 C9.5676255,5.66439453 9.29767928,5.06790234 8.86571514,4.64431641 L11.5839602,4.6441875 C11.7571474,4.6441875 11.8975378,4.49998438 11.8975378,4.32209375 C11.8975378,4.14416016 11.7571474,4 11.5839602,4 L7.30460359,4.00021484 C7.30401793,4.00021484 7.3034741,4.00030078 7.30288845,4.00030078 C6.05589841,4.00133203 5.04170717,5.04366797 5.04170717,6.32478125 L5.04170717,6.76920703 C5.04170717,6.94714063 5.18209761,7.09130078 5.35528486,7.09130078 C5.52847211,7.09130078 5.66886255,6.94714062 5.66886255,6.76920703 L5.66886255,6.32478125 C5.66886255,5.39820313 6.40273307,4.64444531 7.30477092,4.64444531 C7.33208765,4.64444531 7.35923705,4.64521875 7.38621912,4.64655078 C7.78982072,4.66790625 8.16744422,4.84747266 8.45675896,5.15740625 C8.7673247,5.49101563 8.93888048,5.93441016 8.94063745,6.40663672 L8.94063745,9.91482031 L5.66882072,9.91482031 L5.66882072,8.74460937 C5.66882072,8.56667578 5.52843028,8.42251562 5.35524303,8.42251562 C5.18205578,8.42251562 5.04166534,8.56667578 5.04166534,8.74460937 L5.04166534,9.93626172 C5.04166534,10.279582 5.31361952,10.5589648 5.64790438,10.5589648 L8.94076295,10.5589648 L8.94076295,12.0498945 C8.94076295,12.1040352 8.9540239,12.1572734 8.97933267,12.2047109 L9.59699203,13.3619883 L9.07065339,13.9387578 C8.98673705,14.030625 8.94055378,14.1505937 8.94055378,14.276707 L8.94373307,23.2769414 C8.94423506,24.7503828 10.0472371,25.9534219 11.4181355,25.9978516 C11.4296394,25.9991836 11.4413108,25.999957 11.4531494,25.999957 L11.496488,25.999957 L13.1761116,25.999957 L23.7280677,25.999957 C24.9578227,25.999957 25.958251,24.9330859 25.958251,23.6218086 L25.958251,21.7959375 C25.9582928,21.4525742 25.6863386,21.1732344 25.3520956,21.1732344 Z M25.3311793,23.6218516 C25.3311793,24.5779922 24.6120339,25.3558555 23.7281096,25.3558555 L13.4421255,25.3558555 L12.9909183,25.3558555 C13.4369382,24.9147383 13.7164641,24.2847305 13.7164641,23.5864023 L13.7164641,21.8174219 L25.3311793,21.8174219 L25.3311793,23.6218516 L25.3311793,23.6218516 Z" id="Shape" fill="#000000" fill-rule="nonzero"></path>
                                <path d="M12.9989084,9.96187109 L18.669996,9.96187109 C18.8431833,9.96187109 18.9835737,9.81771094 18.9835737,9.63977734 C18.9835737,9.46184375 18.8431833,9.31768359 18.669996,9.31768359 L12.9989084,9.31768359 C12.8257211,9.31768359 12.6853307,9.46184375 12.6853307,9.63977734 C12.6853307,9.81771094 12.8257211,9.96187109 12.9989084,9.96187109 Z" id="Path" fill="#000000" fill-rule="nonzero"></path>
                                <path d="M11.6069263,11.5645625 C11.6069263,11.7424961 11.7473167,11.8866562 11.920504,11.8866562 L15.6488406,11.8866562 C15.8220279,11.8866562 15.9624183,11.7424961 15.9624183,11.5645625 C15.9624183,11.3866289 15.8220279,11.2424687 15.6488406,11.2424687 L11.920504,11.2424687 C11.7473167,11.2425117 11.6069263,11.3867148 11.6069263,11.5645625 Z" id="Path" fill="#000000" fill-rule="nonzero"></path>
                                <path d="M19.7484004,11.2425117 L16.9546056,11.2425117 C16.7814183,11.2425117 16.6410279,11.3866719 16.6410279,11.5646055 C16.6410279,11.7425391 16.7814183,11.8866992 16.9546056,11.8866992 L19.7483586,11.8866992 C19.9215458,11.8866992 20.0619363,11.7425391 20.0619363,11.5646055 C20.0619363,11.3866719 19.9215876,11.2425117 19.7484004,11.2425117 Z" id="Path" fill="#000000" fill-rule="nonzero"></path>
                                <path d="M11.9204622,13.1320195 L13.4589004,13.1320195 C13.6320876,13.1320195 13.7724781,12.9878594 13.7724781,12.8099258 C13.7724781,12.6319922 13.6320876,12.487832 13.4589004,12.487832 L11.9204622,12.487832 C11.7472749,12.487832 11.6068845,12.6319922 11.6068845,12.8099258 C11.6069263,12.9878594 11.7473167,13.1320195 11.9204622,13.1320195 Z" id="Path" fill="#000000" fill-rule="nonzero"></path>
                                <path d="M19.7484004,12.487875 L17.8830817,12.487875 C17.7098944,12.487875 17.569504,12.6320352 17.569504,12.8099688 C17.569504,12.9879023 17.7098944,13.1320625 17.8830817,13.1320625 L19.7484004,13.1320625 C19.9215876,13.1320625 20.0619781,12.9879023 20.0619781,12.8099688 C20.0619781,12.6320352 19.9215876,12.487875 19.7484004,12.487875 Z" id="Path" fill="#000000" fill-rule="nonzero"></path>
                                <path d="M11.9204622,14.3773828 L14.1621494,14.3773828 C14.3353367,14.3773828 14.4757271,14.2332227 14.4757271,14.0552891 C14.4757271,13.8773555 14.3353367,13.7331953 14.1621494,13.7331953 L11.9204622,13.7331953 C11.7472749,13.7331953 11.6068845,13.8773555 11.6068845,14.0552891 C11.6069263,14.2332227 11.7473167,14.3773828 11.9204622,14.3773828 Z" id="Path" fill="#000000" fill-rule="nonzero"></path>
                                <path d="M19.7484004,13.7332383 L15.5000418,13.7332383 C15.3268546,13.7332383 15.1864641,13.8773984 15.1864641,14.055332 C15.1864641,14.2332656 15.3268546,14.3774258 15.5000418,14.3774258 L19.7484004,14.3774258 C19.9215876,14.3774258 20.0619781,14.2332656 20.0619781,14.055332 C20.0619781,13.8773984 19.9215876,13.7332383 19.7484004,13.7332383 Z" id="Path" fill="#000000" fill-rule="nonzero"></path>
                                <path d="M11.9204622,15.6227891 L12.6896394,15.6227891 C12.8628267,15.6227891 13.0032171,15.4786289 13.0032171,15.3006953 C13.0032171,15.1227617 12.8628267,14.9786016 12.6896394,14.9786016 L11.9204622,14.9786016 C11.7472749,14.9786016 11.6068845,15.1227617 11.6068845,15.3006953 C11.6069263,15.4786289 11.7473167,15.6227891 11.9204622,15.6227891 Z" id="Path" fill="#000000" fill-rule="nonzero"></path>
                                <path d="M19.7484004,14.9786016 L17.8830817,14.9786016 C17.7098944,14.9786016 17.569504,15.1227617 17.569504,15.3006953 C17.569504,15.4786289 17.7098944,15.6227891 17.8830817,15.6227891 L19.7484004,15.6227891 C19.9215876,15.6227891 20.0619781,15.4786289 20.0619781,15.3006953 C20.0619781,15.1227617 19.9215876,14.9786016 19.7484004,14.9786016 Z" id="Path" fill="#000000" fill-rule="nonzero"></path>
                                <path d="M15.9624183,16.5460586 C15.9624183,16.368125 15.8220279,16.2239648 15.6488406,16.2239648 L11.920504,16.2239648 C11.7473167,16.2239648 11.6069263,16.368125 11.6069263,16.5460586 C11.6069263,16.7239922 11.7473167,16.8681523 11.920504,16.8681523 L15.6488406,16.8681523 C15.8220279,16.8681523 15.9624183,16.7239922 15.9624183,16.5460586 Z" id="Path" fill="#000000" fill-rule="nonzero"></path>
                                <path d="M19.7484004,16.2240078 L16.9546056,16.2240078 C16.7814183,16.2240078 16.6410279,16.368168 16.6410279,16.5461016 C16.6410279,16.7240352 16.7814183,16.8681953 16.9546056,16.8681953 L19.7483586,16.8681953 C19.9215458,16.8681953 20.0619363,16.7240352 20.0619363,16.5461016 C20.0619363,16.368168 19.9215876,16.2240078 19.7484004,16.2240078 Z" id="Path" fill="#000000" fill-rule="nonzero"></path>
                                <path d="M11.9204622,17.4693711 C11.7472749,17.4693711 11.6068845,17.6135312 11.6068845,17.7914648 C11.6068845,17.9693984 11.7472749,18.1135586 11.9204622,18.1135586 L13.4589004,18.1135586 C13.6320876,18.1135586 13.7724781,17.9693984 13.7724781,17.7914648 C13.7724781,17.6135312 13.6320876,17.4693711 13.4589004,17.4693711 L11.9204622,17.4693711 Z" id="Path" fill="#000000" fill-rule="nonzero"></path>
                                <path d="M15.0560717,18.1135156 L19.7484004,18.1135156 C19.9215876,18.1135156 20.0619781,17.9693555 20.0619781,17.7914219 C20.0619781,17.6134883 19.9215876,17.4693281 19.7484004,17.4693281 L15.0560717,17.4693281 C14.8828845,17.4693281 14.742494,17.6134883 14.742494,17.7914219 C14.742494,17.9693555 14.8829263,18.1135156 15.0560717,18.1135156 Z" id="Path" fill="#000000" fill-rule="nonzero"></path>
                                <path d="M14.6889482,13.1320195 L16.7682829,13.1320195 C16.9414701,13.1320195 17.0818606,12.9878594 17.0818606,12.8099258 C17.0818606,12.6319922 16.9414701,12.487832 16.7682829,12.487832 L14.6889482,12.487832 C14.515761,12.487832 14.3753705,12.6319922 14.3753705,12.8099258 C14.3754124,12.9878594 14.5158028,13.1320195 14.6889482,13.1320195 Z" id="Path" fill="#000000" fill-rule="nonzero"></path>
                                <path d="M13.4711155,15.3006953 C13.4711155,15.4786289 13.611506,15.6227891 13.7846932,15.6227891 L16.3275339,15.6227891 C16.5007211,15.6227891 16.6411116,15.4786289 16.6411116,15.3006953 C16.6411116,15.1227617 16.5007211,14.9786016 16.3275339,14.9786016 L13.7846932,14.9786016 C13.611506,14.9786016 13.4711155,15.1228047 13.4711155,15.3006953 Z" id="Path" fill="#000000" fill-rule="nonzero"></path>
                            </g>
                        </g>
                    </g>
                </g>
            </g>
        </g>
    </g>
</svg>