<?xml version="1.0" encoding="UTF-8"?>
<svg width="11px" height="11px" viewBox="0 0 11 11" version="1.1" xmlns="http://www.w3.org/2000/svg" xmlns:xlink="http://www.w3.org/1999/xlink">
    <!-- Generator: sketchtool 53.2 (72643) - https://sketchapp.com -->
    <title>5FFF1CBD-A7FD-4906-9CD0-955A46DB1098</title>
    <desc>Created with sketchtool.</desc>
    <g id="Page-1" stroke="none" stroke-width="1" fill="none" fill-rule="evenodd">
        <g id="1.-home-page-copy-4" transform="translate(-51.000000, -96.000000)">
            <g id="Group" transform="translate(20.000000, 20.000000)">
                <g id="Bitmap" transform="translate(0.000000, 65.000000)">
                    <g id="Group-3" transform="translate(30.000000, 10.000000)">
                        <g id="ic_search">
                            <g id="Icon-24px">
                                <path d="M9.04166667,8.16666667 L8.58083333,8.16666667 L8.4175,8.00916667 C8.98916667,7.34416667 9.33333333,6.48083333 9.33333333,5.54166667 C9.33333333,3.4475 7.63583333,1.75 5.54166667,1.75 C3.4475,1.75 1.75,3.4475 1.75,5.54166667 C1.75,7.63583333 3.4475,9.33333333 5.54166667,9.33333333 C6.48083333,9.33333333 7.34416667,8.98916667 8.00916667,8.4175 L8.16666667,8.58083333 L8.16666667,9.04166667 L11.0833333,11.9525 L11.9525,11.0833333 L9.04166667,8.16666667 L9.04166667,8.16666667 Z M5.54166667,8.16666667 C4.08916667,8.16666667 2.91666667,6.99416667 2.91666667,5.54166667 C2.91666667,4.08916667 4.08916667,2.91666667 5.54166667,2.91666667 C6.99416667,2.91666667 8.16666667,4.08916667 8.16666667,5.54166667 C8.16666667,6.99416667 6.99416667,8.16666667 5.54166667,8.16666667 L5.54166667,8.16666667 Z" id="Shape" fill="#000000"></path>
                                <polygon id="Shape" points="0 0 14 0 14 14 0 14"></polygon>
                            </g>
                        </g>
                    </g>
                </g>
            </g>
        </g>
    </g>
</svg>