<?xml version="1.0" encoding="UTF-8"?>
<svg width="20px" height="20px" viewBox="0 0 20 20" version="1.1" xmlns="http://www.w3.org/2000/svg" xmlns:xlink="http://www.w3.org/1999/xlink">
    <!-- Generator: sketchtool 53.2 (72643) - https://sketchapp.com -->
    <title>2AFA9D4F-F3CD-47FD-BDF2-3E2D6C6F15A7</title>
    <desc>Created with sketchtool.</desc>
    <g id="Page-1" stroke="none" stroke-width="1" fill="none" fill-rule="evenodd">
        <g id="1.-home-page-copy-5" transform="translate(-35.000000, -260.000000)">
            <g id="Group-3" transform="translate(20.000000, 85.000000)">
                <g id="Group-2">
                    <g transform="translate(10.000000, 20.000000)" id="Group-7">
                        <g transform="translate(0.000000, 150.000000)">
                            <g id="settings">
                                <rect id="Rectangle" x="0" y="0" width="30" height="30"></rect>
                                <path d="M23.7252906,16.6306181 L22.6068791,15.9841375 C22.3741461,15.8483765 22.2383851,15.5897843 22.2513147,15.3247272 C22.2707091,14.9368388 22.2577795,14.5489505 22.2189907,14.1675269 C22.1866667,13.9024698 22.3030332,13.6438776 22.5293014,13.4887222 L23.6283185,12.7452695 C23.8998404,12.5642549 23.9968125,12.2151554 23.8610515,11.9177743 L23.4990224,11.1290679 L23.1369932,10.3403615 C23.0012323,10.0494452 22.677992,9.89428986 22.3612164,9.97833234 L21.1199736,10.3274319 C20.8549166,10.3985448 20.5769299,10.3145023 20.3894505,10.1140933 C20.1308582,9.8296418 19.8528716,9.56458474 19.5490257,9.3253869 C19.3421519,9.15730193 19.2322501,8.89224487 19.2839686,8.62718781 L19.5296312,7.32129692 C19.5878145,6.9980566 19.4067999,6.68128109 19.1094188,6.57137938 L18.2948532,6.26753348 L17.4802876,5.96368758 C17.1699769,5.84732106 16.833807,5.97015238 16.665722,6.25460387 L16.0257062,7.36655056 C15.8899452,7.6057484 15.631353,7.73504453 15.3533663,7.72211492 C14.9460835,7.69625569 14.5517303,7.7091853 14.1573771,7.76090375 C13.8858553,7.79322779 13.6207982,7.67686127 13.4721077,7.45705785 L12.7351197,6.37097038 C12.5541052,6.09944851 12.2050056,6.00247642 11.9076245,6.13823735 L11.1189181,6.50026651 L10.3302118,6.86229567 C10.0392955,6.9980566 9.88414011,7.32129692 9.9681826,7.63807243 L10.3043525,8.90517448 C10.3754654,9.16376674 10.2914229,9.44175341 10.0910139,9.62276799 C9.80656244,9.88136025 9.54150538,10.1658117 9.29584273,10.4761224 C9.12775777,10.689461 8.86270071,10.7928979 8.59764364,10.7411795 L7.31114717,10.4955169 C7.00083647,10.4373336 6.68406095,10.6118834 6.55476483,10.9027997 L6.25091893,11.7173653 L5.94707303,12.5319309 C5.83070651,12.8422416 5.95353783,13.1784115 6.23798931,13.3464965 L7.36933043,13.9994419 C7.60206346,14.1352028 7.73782439,14.3873303 7.72489478,14.6588522 C7.70550036,15.0532054 7.71842998,15.4410937 7.76368362,15.8225173 C7.79600765,16.0875744 7.67964114,16.3526314 7.45983772,16.501322 L6.38667986,17.2253803 C6.11515799,17.4063949 6.0181859,17.7554944 6.15394683,18.0528755 L6.51597599,18.8415819 L6.87800515,19.6302883 C7.01376608,19.9212046 7.3370064,20.0763599 7.65378191,19.9923174 L8.92088396,19.6561475 C9.17947622,19.5850346 9.45746289,19.6690771 9.63847747,19.8694861 C9.89706973,20.1539376 10.1815212,20.4189947 10.4918319,20.6646573 C10.7051705,20.8327423 10.8086074,21.0977993 10.756889,21.3628564 L10.5112263,22.6493529 C10.4530431,22.9725932 10.6340577,23.2893687 10.9314387,23.3992704 L11.7460044,23.7031163 L12.56057,24.0069622 C12.8708807,24.1233287 13.2070506,24.0004974 13.3751356,23.7160459 L14.028081,22.5847048 C14.1638419,22.3519718 14.4159694,22.2162108 14.6874913,22.2291404 C15.0559852,22.2420701 15.430944,22.2291404 15.7929732,22.1903516 C16.0580302,22.1580276 16.3230873,22.2743941 16.4782426,22.5006623 L17.2216954,23.5996794 C17.4027099,23.8712013 17.7518095,23.9681734 18.0491906,23.8324124 L18.837897,23.4703833 L19.6266033,23.1083541 C19.9175196,22.9725932 20.072675,22.6493529 19.9886325,22.3325773 L19.6524626,21.0848697 C19.5813497,20.8198127 19.6653922,20.5482908 19.872266,20.3608114 C20.1567175,20.1022191 20.4217745,19.8242325 20.6674372,19.5203866 C20.8355221,19.3135128 21.1005792,19.2036111 21.3656363,19.2553295 L22.6715271,19.5009921 C22.9947675,19.5591754 23.311543,19.3781608 23.4214447,19.0807797 L23.7252906,18.2662141 L24.0291365,17.4516485 C24.1325734,17.134873 24.0032773,16.7922383 23.7252906,16.6306181 Z M17.9716129,16.0293911 C17.3833155,17.6779167 15.5796345,18.537736 13.9311089,17.9494386 C12.2825833,17.3611412 11.422764,15.5574603 12.0110614,13.9089346 C12.5993588,12.260409 14.4030398,11.4005897 16.0515654,11.9888871 C17.6936262,12.5771845 18.5534455,14.3873303 17.9716129,16.0293911 Z" id="Shape" fill="#A7A9AC" fill-rule="nonzero"></path>
                                <path d="M8.84330629,10.1076285 C8.81098225,10.1464173 8.7592638,10.1658117 8.71401016,10.1593469 L7.42751369,9.90721947 C7.34993601,9.89428986 7.27882314,9.88782505 7.20124546,9.88782505 C6.69052576,9.88782505 6.23152451,10.191671 6.03111551,10.657137 C6.0246507,10.6636018 6.0246507,10.6765314 6.0181859,10.6829962 L5.4104941,12.3121274 C5.19715549,12.8874952 5.42342371,13.527511 5.96000264,13.8378218 L7.09134376,14.4907672 C7.13013259,14.5166264 7.15599182,14.5618801 7.15599182,14.6135985 C7.1365974,15.0338109 7.14952701,15.4604882 7.20124546,15.8742358 C7.20771027,15.9259542 7.18831585,15.9776727 7.14952701,16.0035319 L6.05697473,16.7405198 C5.55271984,17.0831546 5.37170526,17.7361 5.62383271,18.2920734 L6.34142622,19.8630213 C6.54183521,20.3090929 6.98790685,20.5935444 7.47923214,20.5935444 C7.58913385,20.5935444 7.69257075,20.5806148 7.80247246,20.5482908 L9.06957451,20.2121209 C9.11482815,20.1991912 9.16654661,20.2185857 9.19887064,20.2573745 C9.47685731,20.5676852 9.79363283,20.8521367 10.123338,21.1171937 C10.1621268,21.1495178 10.1815212,21.2012362 10.1750564,21.2464899 L9.92939376,22.5329863 C9.81302724,23.1342133 10.1491972,23.7289755 10.7245649,23.9423141 L12.3536962,24.5500059 C12.4959219,24.6017244 12.6446124,24.6275836 12.793303,24.6275836 C13.2393746,24.6275836 13.6531222,24.3883858 13.8793905,24.0004974 L14.5323359,22.8691563 C14.5581951,22.8303674 14.6034488,22.8045082 14.661632,22.8045082 L14.661632,22.8045082 C15.0559852,22.8239026 15.463268,22.8045082 15.8576212,22.7657194 C15.9093397,22.7592546 15.9610581,22.778649 15.9869173,22.8174378 L16.7303701,23.9164549 C16.9631031,24.2590896 17.3509915,24.4659635 17.7647391,24.4659635 C17.9457537,24.4659635 18.1203035,24.4271746 18.2819236,24.3560617 L19.8528716,23.6384682 C20.4088449,23.3863408 20.6997612,22.7721842 20.538141,22.177422 L20.2019711,20.9297144 C20.1890415,20.8844607 20.2084359,20.8327423 20.2472248,20.7939534 C20.5640003,20.5095019 20.8484517,20.205656 21.1005792,19.8824157 C21.1329032,19.8436269 21.1846217,19.8177677 21.2298753,19.8306973 L22.5357662,20.0763599 C22.6133439,20.0892895 22.6909216,20.0957543 22.7684992,20.0957543 C23.2921486,20.0957543 23.7640794,19.7660492 23.945094,19.2811887 L24.5527858,17.6520575 C24.7661244,17.0766898 24.5398562,16.4366739 24.0032773,16.1263632 L22.8848658,15.4798826 C22.8460769,15.4540234 22.8202177,15.4087697 22.8202177,15.3570513 C22.8396121,14.9433036 22.8266825,14.5166264 22.7814289,14.1028788 C22.774964,14.0511604 22.7943585,14.0059067 22.8331473,13.9735827 L23.9321644,13.23013 C24.4364193,12.8874952 24.6174339,12.2345498 24.3653064,11.6785764 L23.6477129,10.1076285 C23.4473039,9.66155683 23.0012323,9.37710535 22.509907,9.37710535 C22.4000053,9.37710535 22.2965684,9.39003496 22.1802019,9.42235899 L20.938959,9.77145854 C20.8937054,9.78438815 20.8419869,9.76499373 20.8031981,9.72620489 C20.5187466,9.41589419 20.2149007,9.1249779 19.8981252,8.87285045 C19.8528716,8.84052642 19.8334771,8.78880797 19.8464068,8.74355432 L20.0920694,7.43766343 C20.2084359,6.83643644 19.872266,6.24167425 19.2968982,6.02833564 L17.667767,5.42064384 C17.5255413,5.36892539 17.3768507,5.34306617 17.2281602,5.34306617 C16.7820885,5.34306617 16.3683409,5.582264 16.1420727,5.97015238 L15.4955921,7.08209908 C15.4697328,7.12088792 15.430944,7.14674715 15.3662959,7.14674715 L15.3662959,7.14674715 C14.9331539,7.12088792 14.4935471,7.13381753 14.0668698,7.18553599 C14.0151514,7.19200079 13.9634329,7.17260637 13.9311089,7.13381753 L13.194121,6.04773006 C12.961388,5.70509532 12.5734996,5.49822152 12.159752,5.49822152 C11.9787374,5.49822152 11.8041876,5.53701036 11.6425675,5.60812323 L10.0716195,6.32571674 C9.51564615,6.57784418 9.22472986,7.19200079 9.38635002,7.78676298 L9.72251996,9.05386503 C9.73544957,9.09911868 9.71605515,9.15083713 9.67726631,9.18316116 C9.39281483,9.46114783 9.10189854,9.77145854 8.84330629,10.1076285 Z M9.76130879,10.8316868 C9.98111221,10.5472353 10.2267749,10.2821782 10.4918319,10.0494452 C10.8538611,9.71974009 11.0025516,9.22195 10.8797203,8.75001913 L10.5435504,7.48291708 C10.5306208,7.44412824 10.5500152,7.4053394 10.5823392,7.39240979 L12.1532872,6.67481628 C12.1662168,6.66835147 12.1726816,6.66835147 12.1856112,6.66835147 C12.1985408,6.66835147 12.2308648,6.66835147 12.2502593,6.70067551 L12.9872472,7.78676298 C13.258769,8.18758097 13.7371647,8.40738439 14.22849,8.34920113 C14.5905192,8.30394749 14.9590131,8.29101788 15.3210423,8.3168771 C15.8188324,8.34920113 16.2907632,8.09060888 16.5299611,7.67039646 L17.1699769,6.55844977 C17.1893713,6.51966093 17.2281602,6.50673131 17.2734138,6.51966093 L18.902545,7.12735273 C18.9413339,7.14028234 18.9607283,7.18553599 18.9542635,7.21786002 L18.7086008,8.52375091 C18.6180935,8.99568177 18.7991081,9.48054225 19.1805317,9.79085296 C19.4520536,10.0041916 19.7106458,10.2498542 19.9498437,10.5149113 C20.2019711,10.7928979 20.5510707,10.9480533 20.9195646,10.9480533 C21.0359311,10.9480533 21.1522976,10.9351237 21.2686642,10.9027997 L22.5034422,10.5601649 C22.5357662,10.5537001 22.574555,10.5601649 22.6004143,10.5989538 L23.3180078,12.1699017 C23.3309374,12.2022257 23.3180078,12.2474794 23.2921486,12.2668738 L22.1931315,13.0103265 C21.7923135,13.2818484 21.5789749,13.7537793 21.6306933,14.2386398 C21.6694822,14.5942041 21.6824118,14.9497685 21.6630173,15.3053328 C21.6371581,15.7966581 21.8828208,16.2621242 22.309498,16.5077868 L23.4279095,17.1542674 C23.4666983,17.1736619 23.4796279,17.2124507 23.4666983,17.2577043 L22.8590065,18.8868355 C22.8460769,18.9191596 22.8008233,18.9450188 22.7684992,18.938554 L21.4626084,18.6928914 C21.3850307,18.6799617 21.3009882,18.6670321 21.2234105,18.6670321 C20.8225925,18.6670321 20.4540986,18.8480467 20.2019711,19.1648222 C19.9886325,19.4363441 19.7429699,19.6949363 19.471448,19.940599 C19.102954,20.2767689 18.9542635,20.774559 19.0835596,21.2464899 L19.4197295,22.4941975 C19.4326591,22.5329863 19.4132647,22.5717752 19.3809407,22.5847048 L17.8099927,23.3022983 C17.7970631,23.3087631 17.7905983,23.3087631 17.7776687,23.3087631 C17.7647391,23.3087631 17.7324151,23.3087631 17.7130206,23.2764391 L16.9695679,22.177422 C16.698046,21.7830688 16.2261152,21.5568006 15.7347899,21.6149838 C15.39862,21.6537727 15.0559852,21.6667023 14.7198153,21.6473079 C14.22849,21.6279135 13.7694888,21.8800409 13.5238261,22.3002533 L12.8708807,23.4315944 C12.8514862,23.4703833 12.8126974,23.4833129 12.7674438,23.4703833 L11.1383126,22.8626915 C11.0995237,22.8497619 11.0801293,22.8045082 11.0865941,22.7721842 L11.3322567,21.4856877 C11.422764,21.007292 11.2417495,20.5224316 10.8538611,20.2121209 C10.5694096,19.9923174 10.3108173,19.7466548 10.0716195,19.4815977 C9.82595686,19.2100759 9.47039251,19.0549205 9.10189854,19.0549205 C8.99199683,19.0549205 8.87563032,19.0678501 8.76572861,19.1001742 L7.49862656,19.4363441 C7.46630253,19.4428089 7.42751369,19.4363441 7.40165446,19.3975552 L6.68406095,17.8266073 C6.67113134,17.7942833 6.68406095,17.7490296 6.70992018,17.7296352 L7.79600765,16.9926473 C8.19682565,16.7211254 8.41662907,16.2427297 8.35844581,15.7578693 C8.31965697,15.4087697 8.30672736,15.0467406 8.31965697,14.6911762 C8.33905139,14.1998509 8.09338875,13.7408497 7.67317633,13.5016518 L6.54183521,12.8487064 C6.50304638,12.829312 6.49011676,12.7905231 6.50304638,12.7452695 L7.10427337,11.1355327 C7.12366779,11.1032087 7.16245663,11.0773494 7.19478066,11.0773494 C7.20124546,11.0773494 7.20124546,11.0773494 7.20124546,11.0773494 L8.48774194,11.3230121 C8.56531961,11.3359417 8.6493621,11.3488713 8.73340458,11.3488713 C9.13422257,11.3294769 9.50918134,11.1484623 9.76130879,10.8316868 Z" id="Shape" fill="#000000" fill-rule="nonzero"></path>
                                <path d="M13.7306999,18.505412 C14.1379827,18.6476377 14.5581951,18.7252154 14.9848724,18.7252154 C16.5687499,18.7252154 17.9910073,17.7231704 18.5211214,16.2298001 C19.2128557,14.2838934 18.1914163,12.1311129 16.2455096,11.4393786 C15.8382268,11.2971528 15.4180144,11.2195752 14.9913372,11.2195752 C13.4074596,11.2195752 11.9852022,12.2216202 11.4550881,13.7149904 C10.7633538,15.667362 11.7847932,17.8136777 13.7306999,18.505412 Z M12.56057,14.1093436 C12.9225991,13.0814394 13.8987849,12.3961699 14.9913372,12.3961699 C15.2822534,12.3961699 15.5731697,12.4478884 15.8576212,12.5448605 C17.1958361,13.0232562 17.9005,14.497232 17.4221044,15.8354469 C17.0600752,16.8633511 16.0838894,17.5486206 14.9913372,17.5486206 C14.7004209,17.5486206 14.4095046,17.4969022 14.1250531,17.3999301 C12.7868382,16.9279992 12.0821743,15.4475585 12.56057,14.1093436 Z" id="Shape" fill="#000000" fill-rule="nonzero"></path>
                            </g>
                        </g>
                    </g>
                </g>
            </g>
        </g>
    </g>
</svg>