<?xml version="1.0" encoding="UTF-8"?>
<svg width="24px" height="24px" viewBox="0 0 24 24" version="1.1" xmlns="http://www.w3.org/2000/svg" xmlns:xlink="http://www.w3.org/1999/xlink">
    <!-- Generator: sketchtool 53.2 (72643) - https://sketchapp.com -->
    <title>56A573DA-7A05-422F-82CA-888CD29E19F3</title>
    <desc>Created with sketchtool.</desc>
    <g id="Page-1" stroke="none" stroke-width="1" fill="none" fill-rule="evenodd">
        <g id="1.-home-page-copy-5" transform="translate(-33.000000, -159.000000)">
            <g id="Group-3" transform="translate(20.000000, 85.000000)">
                <g id="Group-2">
                    <g transform="translate(10.000000, 20.000000)" id="Group-4">
                        <g transform="translate(0.000000, 50.000000)">
                            <g id="stats">
                                <rect id="Rectangle" x="0" y="0" width="30" height="30"></rect>
                                <path d="M15.5967407,25.3451538 L10.0402222,25.3451538 L10.0402222,18.333313 C10.0402222,17.6827393 10.5675659,17.1555786 11.2181396,17.1555786 L14.4188232,17.1555786 C15.069397,17.1555786 15.5967407,17.6827393 15.5967407,18.333313 L15.5967407,25.3451538 Z" id="Path" fill="#89D47F" fill-rule="nonzero"></path>
                                <path d="M12.788269,17.1555786 L11.2181396,17.1555786 C10.5675659,17.1555786 10.0402222,17.6827393 10.0402222,18.333313 L10.0402222,25.3451538 L13.5529175,25.3451538 C12.5275268,23.2504272 12.3004761,19.3764648 12.788269,17.1555786 Z" id="Path" fill="#5EC783" fill-rule="nonzero"></path>
                                <path d="M24.145935,25.3451538 L18.5895996,25.3451538 L18.5895996,14.5569458 C18.5895996,13.9065552 19.1169434,13.3792114 19.767334,13.3792114 L22.9682007,13.3792114 C23.6187744,13.3792114 24.145935,13.9065552 24.145935,14.5569458 L24.145935,25.3451538 Z" id="Path" fill="#A3DEFE" fill-rule="nonzero"></path>
                                <path d="M21.2592773,13.3792114 L19.767334,13.3792114 C19.1169434,13.3792114 18.5895996,13.9065552 18.5895996,14.5569458 L18.5895996,25.3451538 L22.6072998,25.3451538 C20.8214722,22.7840576 20.3774414,16.1494141 21.2592773,13.3792114 Z" id="Path" fill="#7ACEFA" fill-rule="nonzero"></path>
                                <path d="M5.6548462,24.2809448 L5.6548462,5.09973147 C5.6548462,4.68646239 5.31994631,4.3515625 4.90667723,4.3515625 L4.09973147,4.3515625 C3.68646239,4.3515625 3.3515625,4.68646239 3.3515625,5.09973147 L3.3515625,24.8342896 C3.3515625,26.3884888 4.61151122,27.6484375 6.16571044,27.6484375 L25.9002685,27.6484375 C26.3135376,27.6484375 26.6484375,27.3135376 26.6484375,26.9002685 L26.6484375,26.0933228 C26.6484375,25.6800537 26.3135376,25.3451538 25.9002685,25.3451538 L6.71905519,25.3451538 C6.13128661,25.3451538 5.6548462,24.8687134 5.6548462,24.2809448 Z" id="Path" fill="#E1B89A" fill-rule="nonzero"></path>
                                <path d="M6.71905519,25.3451538 C6.13128661,25.3451538 5.6548462,24.8687134 5.6548462,24.2809448 L5.6548462,5.09973147 C5.6548462,4.68646239 5.31994631,4.3515625 4.90667723,4.3515625 L4.09973147,4.3515625 C3.68646239,4.3515625 3.3515625,4.68646239 3.3515625,5.09973147 L3.3515625,24.8342896 C3.3515625,26.3884888 4.61151122,27.6484375 6.16571044,27.6484375 L10.6624146,27.6484375 C10.286499,27.2884521 10.0718994,26.1328735 10.4020386,25.3451538 L6.71905519,25.3451538 Z" id="Path" fill="#D2996F" fill-rule="nonzero"></path>
                                <g id="Group" transform="translate(9.562500, 4.750000)" fill="#EEA849" fill-rule="nonzero">
                                    <path d="M3.421875,7.52270508 C3.421875,8.45910647 2.66271975,9.21807862 1.72650145,9.21807862 C0.790283203,9.21807862 0.0311279057,8.45910647 0.0311279057,7.52270508 C0.0311279057,6.58648683 0.790283203,5.82733153 1.72650145,5.82733153 C2.66271975,5.82733153 3.421875,6.58648683 3.421875,7.52270508 Z" id="Path"></path>
                                    <path d="M14.583435,4.97772216 C14.583435,5.91412355 13.8244629,6.6730957 12.8880615,6.6730957 C11.9518432,6.6730957 11.1928711,5.91412355 11.1928711,4.97772216 C11.1928711,4.04150391 11.9518432,3.28253175 12.8880615,3.28253175 C13.8244629,3.28253175 14.583435,4.04150391 14.583435,4.97772216 L14.583435,4.97772216 Z" id="Path"></path>
                                    <path d="M7.95629883,1.73748778 C7.95629883,2.67370603 7.19732667,3.43286133 6.26092528,3.43286133 C5.32470703,3.43286133 4.56555178,2.67370603 4.56555178,1.73748778 C4.56555178,0.801086437 5.32470703,0.0421142805 6.26092528,0.0421142805 C7.19732667,0.0421142805 7.95629883,0.801086437 7.95629883,1.73748778 Z" id="Path"></path>
                                </g>
                                <path d="M23.4536133,27.296875 L6.16571044,27.296875 C4.80780028,27.296875 3.703125,26.1921997 3.703125,24.8342896 L3.703125,7.68463136 C3.703125,7.49035647 3.54583739,7.33306886 3.3515625,7.33306886 C3.15728761,7.33306886 3,7.49035647 3,7.68463136 L3,24.8342896 C3,26.579834 4.42016602,28 6.16571044,28 L23.4536133,28 C23.6477051,28 23.8051758,27.8425293 23.8051758,27.6484375 C23.8051758,27.4543457 23.6477051,27.296875 23.4536133,27.296875 Z M11.2890015,14.3196411 C12.4176636,14.3196411 13.3359375,13.4013672 13.3359375,12.2727051 C13.3359375,11.7466431 13.1361694,11.2663574 12.8089599,10.9034424 L14.8566284,8.29089353 C15.1446533,8.44616697 15.473877,8.53424073 15.8234253,8.53424073 C16.5036621,8.53424073 17.1069946,8.20043945 17.4794311,7.68847656 L20.4851074,9.15808103 C20.4325561,9.33898928 20.4038086,9.52996825 20.4038086,9.72772216 C20.4038086,10.8563843 21.3220825,11.7746582 22.4507446,11.7746582 C23.5794067,11.7746582 24.4974975,10.8563843 24.4974975,9.72772216 C24.4974975,8.59906005 23.5794067,7.68078616 22.4507446,7.68078616 C21.7705078,7.68078616 21.1671753,8.01458739 20.7947388,8.52673337 L17.7890625,7.05712891 C17.8416138,6.8762207 17.8703613,6.68524169 17.8703613,6.48748778 C17.8703613,5.35882567 16.9520874,4.44055178 15.8234253,4.44055178 C14.6947632,4.44055178 13.7764893,5.35882567 13.7764893,6.48748778 C13.7764893,7.01354978 13.9760742,7.49383544 14.3034668,7.8567505 L12.2559815,10.4691162 C11.9677734,10.3140259 11.6385498,10.225769 11.2890015,10.225769 C10.1603393,10.225769 9.24206541,11.144043 9.24206541,12.2727051 C9.24206541,13.4013672 10.1603393,14.3196411 11.2890015,14.3196411 Z M22.4505615,8.38409425 C23.1915893,8.38409425 23.7943725,8.98687745 23.7943725,9.72772216 C23.7943725,10.46875 23.1915893,11.0715332 22.4505615,11.0715332 C21.7097168,11.0715332 21.1069336,10.46875 21.1069336,9.72772216 C21.1069336,8.98687745 21.7097168,8.38409425 22.4505615,8.38409425 Z M15.8234253,5.14367678 C16.5644531,5.14367678 17.1672363,5.74645994 17.1672363,6.48748778 C17.1672363,7.22833253 16.5644531,7.83111573 15.8234253,7.83111573 C15.0823974,7.83111573 14.4796143,7.22833253 14.4796143,6.48748778 C14.4796143,5.74645994 15.0825806,5.14367678 15.8234253,5.14367678 Z M11.2890015,10.928894 C12.0300293,10.928894 12.6328125,11.5318604 12.6328125,12.2727051 C12.6328125,13.0137329 12.0300293,13.6165161 11.2890015,13.6165161 C10.5479737,13.6165161 9.94519041,13.0137329 9.94519041,12.2727051 C9.94519041,11.5318604 10.5479737,10.928894 11.2890015,10.928894 Z M25.9002685,24.9935913 L24.4974975,24.9935913 L24.4974975,14.5569458 C24.4974975,13.7137451 23.8114013,13.0276489 22.9682007,13.0276489 L19.767334,13.0276489 C18.9241333,13.0276489 18.2380371,13.7137451 18.2380371,14.5569458 L18.2380371,24.9935913 L15.9481201,24.9935913 L15.9481201,18.333313 C15.9481201,17.4899292 15.262207,16.803833 14.4188232,16.803833 L11.2181396,16.803833 C10.3747559,16.803833 9.68865966,17.4899292 9.68865966,18.333313 L9.68865966,24.9935913 L6.71905519,24.9935913 C6.32611083,24.9935913 6.0064087,24.6738892 6.0064087,24.2809448 L6.0064087,19.774353 L7.00708008,19.774353 C7.20135497,19.774353 7.35864258,19.6170654 7.35864258,19.4227905 C7.35864258,19.2286987 7.20135497,19.071228 7.00708008,19.071228 L6.0064087,19.071228 L6.0064087,13.9541626 L7.00708008,13.9541626 C7.20135497,13.9541626 7.35864258,13.7966919 7.35864258,13.6026001 C7.35864258,13.4085083 7.20135497,13.2510376 7.00708008,13.2510376 L6.0064087,13.2510376 L6.0064087,8.13378906 L7.00708008,8.13378906 C7.20135497,8.13378906 7.35864258,7.97631836 7.35864258,7.78222656 C7.35864258,7.58813477 7.20135497,7.43066406 7.00708008,7.43066406 L6.0064087,7.43066406 L6.0064087,5.09973147 C6.0064087,4.49328616 5.51312255,4 4.90667723,4 L4.09973147,4 C3.49328616,4 3,4.49328616 3,5.09973147 L3,6.00482177 C3,6.19891356 3.15728761,6.35638427 3.3515625,6.35638427 C3.54583739,6.35638427 3.703125,6.19891356 3.703125,6.00482177 L3.703125,5.09973147 C3.703125,4.88110352 3.88110352,4.703125 4.09973147,4.703125 L4.90667723,4.703125 C5.12548828,4.703125 5.3032837,4.88110352 5.3032837,5.09973147 L5.3032837,24.2809448 C5.3032837,25.0615234 5.93847656,25.6967163 6.71905519,25.6967163 L25.9002685,25.6967163 C26.1188965,25.6967163 26.296875,25.8745117 26.296875,26.0933228 L26.296875,26.9002685 C26.296875,27.1188965 26.1188965,27.296875 25.9002685,27.296875 L25.1143799,27.296875 C24.9202881,27.296875 24.7628174,27.4543457 24.7628174,27.6484375 C24.7628174,27.8425293 24.9202881,28 25.1143799,28 L25.9002685,28 C26.5067138,28 27,27.5067138 27,26.9002685 L27,26.0933228 C27,25.4868775 26.5067138,24.9935913 25.9002685,24.9935913 Z M15.2449951,24.9935913 L10.3917847,24.9935913 L10.3917847,18.333313 C10.3917847,17.8777466 10.7625732,17.506958 11.2181396,17.506958 L14.4188232,17.506958 C14.8743896,17.506958 15.2449951,17.8777466 15.2449951,18.333313 L15.2449951,24.9935913 Z M23.7943725,24.9935913 L18.9411621,24.9935913 L18.9411621,14.5569458 C18.9411621,14.1013794 19.3117676,13.7307739 19.767334,13.7307739 L22.9682007,13.7307739 C23.4237671,13.7307739 23.7943725,14.1013794 23.7943725,14.5569458 L23.7943725,24.9935913 Z" id="Shape" fill="#000000" fill-rule="nonzero"></path>
                            </g>
                        </g>
                    </g>
                </g>
            </g>
        </g>
    </g>
</svg>