<?xml version="1.0" encoding="UTF-8"?>
<svg width="28px" height="23px" viewBox="0 0 28 23" version="1.1" xmlns="http://www.w3.org/2000/svg" xmlns:xlink="http://www.w3.org/1999/xlink">
    <!-- Generator: sketchtool 53.2 (72643) - https://sketchapp.com -->
    <title>6EE4AE17-E8F8-4397-A00B-4BEB62A86867</title>
    <desc>Created with sketchtool.</desc>
    <g id="Page-1" stroke="none" stroke-width="1" fill="none" fill-rule="evenodd">
        <g id="1.-home-page-copy-5" transform="translate(-31.000000, -209.000000)">
            <g id="Group-3" transform="translate(20.000000, 85.000000)">
                <g id="Group-2">
                    <g transform="translate(10.000000, 20.000000)" id="Group-6">
                        <g transform="translate(0.000000, 100.000000)">
                            <g id="tractor-(1)">
                                <rect id="Rectangle" x="0" y="0" width="30" height="30"></rect>
                                <path d="M21.1373901,10.3861684 L20.2606811,10.3861684 C20.0184326,10.3861684 19.8223267,10.576853 19.8223267,10.8119407 L19.8223267,13.3667816 L21.5757447,13.3667816 L21.5757447,10.8119407 C21.5757447,10.576853 21.3794251,10.3861684 21.1373901,10.3861684 Z" id="Path" fill="#DAD8DB" fill-rule="nonzero"></path>
                                <path d="M24.6444397,17.6247113 L24.6444397,13.7925538 C24.6444397,13.3221709 24.2518005,12.9410093 23.7677307,12.9410093 L18.0686951,12.9410093 L18.0686951,17.6247113 L24.6444397,17.6247113 Z" id="Path" fill="#FF8086" fill-rule="nonzero"></path>
                                <path d="M18.0686951,14.6440982 L5.79391478,14.6440982 L5.79391478,5.27648672 C5.79391478,4.80631137 6.18655397,4.42494226 6.67083738,4.42494226 L18.0686951,4.42494226 L18.0686951,14.6440982 Z" id="Path" fill="#DBEAFF" fill-rule="nonzero"></path>
                                <path d="M6.67083738,4.42494226 C6.18655397,4.42494226 5.79391478,4.80631137 5.79391478,5.27648672 L5.79391478,10.8119407 L7.10919192,10.8119407 L7.10919192,7.40555534 C7.10919192,6.46478964 7.89425658,5.70225895 8.86260989,5.70225895 L18.0686951,5.70225895 L18.0686951,4.42494226 L6.67083738,4.42494226 Z" id="Path" fill="#C3DDFF" fill-rule="nonzero"></path>
                                <path d="M4.4788513,15.9214149 L16.3150635,14.6440982 L13.6394348,11.6738597 C13.3897095,11.3966513 13.0289001,11.2377129 12.6497193,11.2377129 L5.07571412,11.2377129 C4.69631959,11.2377129 4.33551028,11.3966513 4.08599856,11.6738597 L2.22854616,13.7357011 L4.4788513,15.9214149 Z" id="Path" fill="#5D5360" fill-rule="nonzero"></path>
                                <path d="M12.8082275,14.6440982 L21.5757447,14.6440982 C22.0600281,14.6440982 22.4524536,15.0254673 22.4524536,15.4956427 L22.4524536,19.7535725 L12.8082275,19.7535725 L12.8082275,14.6440982 Z" id="Path" fill="#5D5360" fill-rule="nonzero"></path>
                                <g id="Group" transform="translate(3.296875, 11.224018)" fill="#4B3F4E" fill-rule="nonzero">
                                    <path d="M0.0311889375,1.29101114 L11.1002807,1.29101114 L10.3425598,0.449841224 C10.0928345,0.172632794 9.73202513,0.0136944018 9.35284427,0.0136944018 L1.77883913,0.0136944018 C1.39944459,0.0136944018 1.03863528,0.172632794 0.789123562,0.449841224 L0.0311889375,1.29101114 Z" id="Path"></path>
                                    <path d="M16.5504456,8.52955398 L21.3475647,8.52955398 L21.3475647,5.97492061 C19.3311768,5.97492061 17.563446,6.99474056 16.5504456,8.52955398 Z" id="Path"></path>
                                    <polygon id="Path" points="9.51135254 7.2522373 18.2788697 7.2522373 18.2788697 8.52955398 9.51135254 8.52955398"></polygon>
                                </g>
                                <path d="M15.876709,19.7535725 C15.876709,23.5162204 12.7364502,26.5665506 8.86260989,26.5665506 C4.98876953,26.5665506 1.84851074,23.5162204 1.84851074,19.7535725 C1.84851074,15.991132 4.98876953,12.9408018 8.86260989,12.9408018 C12.7364502,12.9408018 15.876709,15.991132 15.876709,19.7535725 Z" id="Path" fill="#6F6571" fill-rule="nonzero"></path>
                                <path d="M13.2463684,19.7535725 C13.2463684,22.1052793 11.2838135,24.0117098 8.86260989,24.0117098 C6.44161986,24.0117098 4.4788513,22.1052793 4.4788513,19.7535725 C4.4788513,17.4020731 6.44161986,15.4956427 8.86260989,15.4956427 C11.2838135,15.4956427 13.2463684,17.4020731 13.2463684,19.7535725 Z" id="Path" fill="#DAD8DB" fill-rule="nonzero"></path>
                                <path d="M11.4929505,19.7535725 C11.4929505,21.164721 10.3152466,22.3084133 8.86260989,22.3084133 C7.40997317,22.3084133 6.23226927,21.164721 6.23226927,19.7535725 C6.23226927,18.3426314 7.40997317,17.1989391 8.86260989,17.1989391 C10.3152466,17.1989391 11.4929505,18.3426314 11.4929505,19.7535725 Z" id="Path" fill="#FFFFFF" fill-rule="nonzero"></path>
                                <path d="M9.73953248,25.7147987 C5.86569212,25.7147987 2.72543334,22.6646759 2.72543334,18.902028 C2.72543334,17.23774 3.3415222,15.7141311 4.36221315,14.5308079 C2.82647708,15.7805283 1.84851074,17.65542 1.84851074,19.7535725 C1.84851074,23.5162204 4.98876953,26.5665506 8.86260989,26.5665506 C11.0227661,26.5665506 12.9530639,25.6164477 14.2399292,24.1247925 C13.021637,25.1163936 11.4530029,25.7147987 9.73953248,25.7147987 L9.73953248,25.7147987 Z" id="Path" fill="#5D5360" fill-rule="nonzero"></path>
                                <path d="M28.5898438,22.7341855 C28.5898438,24.8508047 26.8233948,26.5665506 24.6444397,26.5665506 C22.4654846,26.5665506 20.6990357,24.8508047 20.6990357,22.7341855 C20.6990357,20.6177739 22.4654846,18.902028 24.6444397,18.902028 C26.8233948,18.902028 28.5898438,20.6177739 28.5898438,22.7341855 L28.5898438,22.7341855 Z" id="Path" fill="#6F6571" fill-rule="nonzero"></path>
                                <path d="M26.8364258,22.7341855 C26.8364258,23.910039 25.8550415,24.8632542 24.6444397,24.8632542 C23.4338379,24.8632542 22.4524536,23.910039 22.4524536,22.7341855 C22.4524536,21.5585396 23.4338379,20.6053244 24.6444397,20.6053244 C25.8550415,20.6053244 26.8364258,21.5585396 26.8364258,22.7341855 L26.8364258,22.7341855 Z" id="Path" fill="#DAD8DB" fill-rule="nonzero"></path>
                                <path d="M25.5211487,25.7147987 C23.3421936,25.7147987 21.5757447,23.9990527 21.5757447,21.8826411 C21.5757447,21.0418862 21.8577271,20.2669061 22.3302612,19.6350949 C21.3433228,20.3316434 20.698822,21.4585288 20.698822,22.7341855 C20.698822,24.8505972 22.465271,26.5665506 24.6444397,26.5665506 C25.9577942,26.5665506 27.117981,25.9405492 27.8351135,24.9819392 C27.1846314,25.4409101 26.3867493,25.7147987 25.5211487,25.7147987 Z" id="Path" fill="#5D5360" fill-rule="nonzero"></path>
                                <polygon id="Path" fill="#C8C5C9" fill-rule="nonzero" points="19.8223267 11.6634852 21.5757447 11.6634852 21.5757447 12.9408018 19.8223267 12.9408018"></polygon>
                                <path d="M8.86260989,15.4956427 C7.42834473,15.4956427 6.15878295,16.1679146 5.35897826,17.2022589 C6.09170534,16.6677613 6.99917604,16.3473946 7.98590091,16.3473946 C10.4071045,16.3473946 12.3696594,18.2536176 12.3696594,20.6053244 C12.3696594,21.5637269 12.0396118,22.4451501 11.4895325,23.1568454 C12.5544434,22.3799979 13.2463684,21.1468768 13.2463684,19.7537799 C13.246582,17.4020731 11.2838135,15.4956427 8.86260989,15.4956427 Z" id="Path" fill="#C8C5C9" fill-rule="nonzero"></path>
                                <path d="M25.054596,18.5229413 L25.054596,17.5973225 L25.9595032,17.5973225 C26.1861572,17.5973225 26.3696594,17.4188799 26.3696594,17.1989391 C26.3696594,16.9787908 26.1861572,16.8005557 25.9595032,16.8005557 L25.054596,16.8005557 L25.054596,13.7925538 C25.054596,13.1032675 24.4771729,12.5424184 23.7677307,12.5424184 L21.9859009,12.5424184 L21.9859009,10.8119407 C21.9859009,10.3573272 21.6052246,9.98778505 21.1373901,9.98778505 L21.1091919,9.98778505 L21.1091919,7.08311383 C21.1091919,6.84823363 21.2031861,6.62746285 21.3742981,6.46146977 L21.8658447,5.98403216 C22.0258484,5.82841368 22.0258484,5.57631169 21.8658447,5.42069321 C21.7056275,5.26507468 21.4458618,5.26507468 21.2856445,5.42069321 L20.7940979,5.89813077 C20.4683228,6.21455505 20.2888794,6.63534749 20.2888794,7.0829063 L20.2888794,9.98778505 L20.2606811,9.98778505 C19.7926331,9.98778505 19.4121704,10.3573272 19.4121704,10.8119407 L19.4121704,12.5424184 L18.4788513,12.5424184 L18.4788513,4.82332564 L18.945404,4.82332564 C19.1720581,4.82332564 19.3555603,4.64488308 19.3555603,4.42494226 C19.3555603,4.20500144 19.1720581,4.02655889 18.945404,4.02655889 L6.67083737,4.02655889 C5.96118164,4.02655889 5.38375853,4.58720052 5.38375853,5.27648672 L5.38375853,10.8393295 L5.07571412,10.8393295 C4.57818606,10.8393295 4.10479739,11.0478583 3.77709961,11.4115906 L1.10147096,14.3818292 C0.952362047,14.5474072 0.9696655,14.7990943 1.14013672,14.9439232 C1.31060794,15.0887521 1.56973268,15.0719454 1.71884154,14.9063673 L2.24841309,14.3185443 L3.13088991,15.1754835 C2.07388307,16.4216765 1.43835449,18.0168699 1.43835449,19.7535725 C1.43835449,23.7299365 4.76895143,26.964934 8.86260989,26.964934 C12.8186951,26.964934 16.0617065,23.9436526 16.2753296,20.1519558 L19.1447143,20.1519558 C18.7544251,20.9331607 18.5352478,21.8093967 18.5352478,22.7341855 C18.5352478,22.9543339 18.7189636,23.1325689 18.945404,23.1325689 C19.1718445,23.1325689 19.3555603,22.9543339 19.3555603,22.7341855 C19.3555603,21.7936273 19.6174622,20.9111667 20.0739746,20.1519558 L21.1978454,20.1519558 C20.6287536,20.866971 20.2886658,21.7625036 20.2886658,22.7341855 C20.2886658,25.0670107 22.2426758,26.964934 24.6444397,26.964934 C27.0462036,26.964934 29,25.0670107 29,22.734393 C29,20.5360223 27.2645264,18.7246229 25.054596,18.5229413 L25.054596,18.5229413 Z M24.2342835,13.7925538 L24.2342835,16.8142502 C23.7604675,16.8449588 23.301178,16.9281629 22.8626099,17.05826 L22.8626099,15.4956427 C22.8626099,14.8063564 22.2854004,14.2457149 21.5757447,14.2457149 L18.4788513,14.2457149 L18.4788513,13.3393925 L23.7675171,13.3393927 C24.0249329,13.3391852 24.2342835,13.5425267 24.2342835,13.7925538 L24.2342835,13.7925538 Z M20.2322693,10.8119407 C20.2322693,10.7967938 20.244873,10.7845518 20.2604675,10.7845518 L21.1373901,10.7845518 C21.1529846,10.7845518 21.1655884,10.7967938 21.1655884,10.8119407 L21.1655884,12.5424184 L20.2322693,12.5424184 L20.2322693,10.8119407 Z M17.6585388,11.9790795 L16.4569092,10.8119407 L16.6051635,10.6677342 C16.7653809,10.5121157 16.7653809,10.2600137 16.6051635,10.1043952 C16.4449463,9.94877673 16.1853943,9.94877673 16.025177,10.1043952 L15.148468,10.9559397 C14.9882507,11.1115581 14.9882507,11.3638676 15.148468,11.5192787 C15.2285767,11.5970879 15.3334656,11.6360962 15.4383545,11.6360962 C15.543457,11.6360962 15.648346,11.5970879 15.7284546,11.5192787 L15.876709,11.3752796 L17.6585388,13.105965 L17.6585388,14.2457149 L16.5013428,14.2457149 L13.9481201,11.4115906 C13.620636,11.0478583 13.1472473,10.8393295 12.6497193,10.8393295 L12.3414612,10.8393295 L12.3414612,4.82332564 L17.6585388,4.82332564 L17.6585388,11.9790795 Z M6.20407103,5.27648672 C6.20407103,5.02666715 6.41342162,4.82332564 6.67062377,4.82332564 L11.5211487,4.82332564 L11.5211487,10.8393295 L6.20407103,10.8393295 L6.20407103,5.27648672 Z M4.39447019,11.9363362 C4.56643678,11.7454442 4.81466673,11.6360962 5.07571412,11.6360962 L12.6497193,11.6360962 C12.9107666,11.6360962 13.1589966,11.7454442 13.3307495,11.9363362 L15.4112244,14.2457149 L13.6488342,14.2457149 C12.3555603,13.1837742 10.6848145,12.542626 8.86260989,12.542626 C6.85177611,12.542626 5.02529909,13.3234159 3.68716432,14.589113 L2.78994752,13.7176494 L4.39447019,11.9363362 Z M8.86260989,26.1681672 C5.22119141,26.1681672 2.25866699,23.2906773 2.25866699,19.7537799 C2.25866699,16.2168826 5.22119141,13.3393927 8.86260989,13.3393927 C12.5040283,13.3393927 15.4665527,16.2168826 15.4665527,19.7537799 C15.4665527,23.2906773 12.5040283,26.1681672 8.86260989,26.1681672 Z M16.2753296,19.3551891 C16.1828308,17.7118577 15.5212402,16.2131477 14.4789734,15.0424816 L21.5757447,15.0424816 C21.8329467,15.0424816 22.0422974,15.2458231 22.0422974,15.4956427 L22.0422974,17.3665921 C21.0686035,17.8137359 20.23526,18.5034372 19.6255798,19.3551891 L16.2753296,19.3551891 Z M24.2342835,17.6126768 L24.2342835,18.5229413 C23.4107666,18.5980532 22.6532592,18.8964257 22.0269165,19.3551891 L20.6642151,19.3551891 C21.5498962,18.3723026 22.8143311,17.7189124 24.2342835,17.6126768 Z M24.6444397,26.1681672 C22.6949158,26.1681672 21.1089783,24.6277515 21.1089783,22.734393 C21.1089783,20.8410346 22.6949158,19.3004114 24.6444397,19.3004114 C26.59375,19.3004114 28.1796875,20.8408271 28.1796875,22.734393 C28.1796875,24.6277515 26.59375,26.1681672 24.6444397,26.1681672 Z" id="Shape" fill="#000000" fill-rule="nonzero"></path>
                                <path d="M8.86260989,22.7067967 C10.5391236,22.7067967 11.9031067,21.382172 11.9031067,19.7535725 C11.9031067,18.1251804 10.5393372,16.8005557 8.86260989,16.8005557 C7.18609622,16.8005557 5.82232669,18.1251804 5.82232669,19.7535725 C5.82232669,21.382172 7.18609622,22.7067967 8.86260989,22.7067967 L8.86260989,22.7067967 Z M8.86260989,17.5973225 C10.0868835,17.5973225 11.0827942,18.5646471 11.0827942,19.7537799 C11.0827942,20.9427053 10.0868835,21.9102375 8.86260989,21.9102375 C7.6385498,21.9102375 6.64263919,20.9429128 6.64263919,19.7537799 C6.64242552,18.5646471 7.6385498,17.5973225 8.86260989,17.5973225 L8.86260989,17.5973225 Z" id="Shape" fill="#000000" fill-rule="nonzero"></path>
                                <path d="M24.6444397,22.3360096 C24.4179993,22.3360096 24.2364197,22.5142447 24.2364197,22.734393 C24.2364197,22.9543339 24.4222717,23.1327764 24.6487122,23.1327764 C24.8753662,23.1327764 25.0588684,22.9543339 25.0588684,22.734393 C25.0588684,22.5142447 24.8753662,22.3360096 24.6487122,22.3360096 L24.6444397,22.3360096 Z" id="Path" fill="#000000" fill-rule="nonzero"></path>
                                <path d="M8.86709596,20.1519558 C9.09353639,20.1519558 9.27725221,19.9737208 9.27725221,19.7535725 C9.27725221,19.5336316 9.09353639,19.3551891 8.86709596,19.3551891 L8.86260989,19.3551891 C8.63616941,19.3551891 8.45480345,19.5336316 8.45480345,19.7535725 C8.45480345,19.9737208 8.64065553,20.1519558 8.86709596,20.1519558 Z" id="Path" fill="#000000" fill-rule="nonzero"></path>
                                <path d="M6.05282591,17.0244389 C7.38391113,15.7317678 9.48703002,15.5251064 11.0537415,16.5333069 C11.2425842,16.6546893 11.4970092,16.6046839 11.6221924,16.4212615 C11.7473755,16.2378392 11.6956787,15.9905095 11.5068359,15.8689196 C9.616272,14.6523979 7.07864381,14.9013875 5.47283933,16.4610999 C3.86724856,18.0206048 3.61068724,20.4856019 4.86337279,22.3219003 C4.94219973,22.4376804 5.07272337,22.5003428 5.20559694,22.5003428 C5.28335573,22.5003428 5.36196901,22.4787637 5.43161009,22.4339456 C5.62045287,22.3125631 5.67214967,22.0652335 5.5471802,21.8818111 C4.5091858,20.3600697 4.72195436,18.3173174 6.05282591,17.0244389 Z" id="Path" fill="#000000" fill-rule="nonzero"></path>
                                <path d="M12.2936096,17.0734068 C12.1047669,17.1947893 12.0530701,17.4421189 12.1782532,17.6255413 C13.2162475,19.1472827 13.003479,21.190035 11.6723938,22.4829136 C10.3415222,23.7755846 8.23840332,23.982246 6.67169192,22.9740455 C6.48284909,22.8526631 6.22842409,22.902876 6.10324095,23.0860908 C5.97805787,23.2695132 6.02975462,23.5168429 6.2185974,23.6384328 C7.02139284,24.1548788 7.94039916,24.4071882 8.85577395,24.4071882 C10.0958557,24.4071882 11.3286743,23.9436526 12.252594,23.0462525 C13.8581848,21.4865401 14.1145325,19.0217505 12.8620605,17.1854522 C12.7368775,17.0020298 12.4824524,16.9518169 12.2936096,17.0734068 Z" id="Path" fill="#000000" fill-rule="nonzero"></path>
                                <path d="M25.2940674,21.1248827 C25.505127,21.2049744 25.7428894,21.1037186 25.8255615,20.8989247 C25.90802,20.6939232 25.8039856,20.4629854 25.592926,20.3828937 C24.6290589,20.016464 23.5344544,20.2380648 22.8045044,20.9472701 C22.0745544,21.6562681 21.846405,22.7192462 22.2234497,23.6556546 C22.2866822,23.8127255 22.4415589,23.9090015 22.6056214,23.9090015 C22.6551819,23.9090015 22.7058105,23.9000794 22.7549439,23.8814051 C22.9657898,23.8013135 23.0700378,23.5703757 22.9873658,23.3653742 C22.7290954,22.723811 22.8850403,21.9957238 23.384491,21.5106091 C23.8841553,21.0252869 24.6335449,20.8738182 25.2940674,21.1248827 L25.2940674,21.1248827 Z" id="Path" fill="#000000" fill-rule="nonzero"></path>
                                <path d="M27.0654297,21.812924 C26.9829712,21.6081301 26.7449951,21.5070818 26.5339355,21.5871734 C26.3230896,21.6672651 26.2188415,21.8984104 26.3015137,22.1032044 C26.5597839,22.7447676 26.4038391,23.4728547 25.9043884,23.9579695 C25.4047241,24.4432917 24.6551208,24.5947604 23.994812,24.3436959 C23.7837525,24.2636042 23.54599,24.36486 23.4633178,24.569654 C23.3808594,24.7744479 23.4848938,25.0055932 23.6959534,25.0858924 C24.0046387,25.203125 24.3267822,25.2599777 24.645935,25.2599777 C25.3235474,25.2599777 25.9881286,25.0033108 26.484375,24.521516 C27.2143249,23.8123105 27.4424744,22.7493324 27.0654297,21.812924 L27.0654297,21.812924 Z" id="Path" fill="#000000" fill-rule="nonzero"></path>
                                <path d="M20.6990357,17.1715502 C20.925476,17.1715502 21.1091919,16.9931077 21.1091919,16.7731669 L21.1091919,16.3471872 C21.1091919,16.1272463 20.925476,15.9488038 20.6990357,15.9488038 C20.4723816,15.9488038 20.2888794,16.1272463 20.2888794,16.3471872 L20.2888794,16.7731669 C20.2888794,16.9931077 20.4723816,17.1715502 20.6990357,17.1715502 Z" id="Path" fill="#000000" fill-rule="nonzero"></path>
                                <path d="M17.1919861,15.9488038 C16.965332,15.9488038 16.7818298,16.1272463 16.7818298,16.3471872 L16.7818298,16.7731669 C16.7818298,16.9931077 16.965332,17.1715502 17.1919861,17.1715502 C17.4184265,17.1715502 17.6021423,16.9931077 17.6021423,16.7731669 L17.6021423,16.3471872 C17.6021423,16.1272463 17.4184265,15.9488038 17.1919861,15.9488038 Z" id="Path" fill="#000000" fill-rule="nonzero"></path>
                                <path d="M18.945404,15.9488038 C18.7189636,15.9488038 18.5352478,16.1272463 18.5352478,16.3471872 L18.5352478,16.7731669 C18.5352478,16.9931077 18.7189636,17.1715502 18.945404,17.1715502 C19.1718445,17.1715502 19.3555603,16.9931077 19.3555603,16.7731669 L19.3555603,16.3471872 C19.3555603,16.1272463 19.1718445,15.9488038 18.945404,15.9488038 Z" id="Path" fill="#000000" fill-rule="nonzero"></path>
                            </g>
                        </g>
                    </g>
                </g>
            </g>
        </g>
    </g>
</svg>